<svg width="44" height="44" viewBox="0 0 44 44" fill="none" xmlns="http://www.w3.org/2000/svg">
<path d="M31.3747 21.9998C31.3747 22.2982 31.2561 22.5843 31.0452 22.7953C30.8342 23.0063 30.548 23.1248 30.2497 23.1248H16.4684L21.2984 27.9539C21.5098 28.1652 21.6285 28.4518 21.6285 28.7507C21.6285 29.0496 21.5098 29.3363 21.2984 29.5476C21.0871 29.759 20.8004 29.8777 20.5015 29.8777C20.2027 29.8777 19.916 29.759 19.7047 29.5476L12.9547 22.7976C12.8498 22.6931 12.7666 22.5689 12.7098 22.4322C12.653 22.2954 12.6238 22.1488 12.6238 22.0007C12.6238 21.8527 12.653 21.7061 12.7098 21.5693C12.7666 21.4326 12.8498 21.3084 12.9547 21.2039L19.7047 14.4539C19.8093 14.3492 19.9335 14.2662 20.0703 14.2096C20.207 14.1529 20.3535 14.1238 20.5015 14.1238C20.6495 14.1238 20.7961 14.1529 20.9328 14.2096C21.0695 14.2662 21.1938 14.3492 21.2984 14.4539C21.4031 14.5585 21.4861 14.6827 21.5427 14.8195C21.5993 14.9562 21.6285 15.1027 21.6285 15.2507C21.6285 15.3987 21.5993 15.5453 21.5427 15.682C21.4861 15.8187 21.4031 15.943 21.2984 16.0476L16.4684 20.8748H30.2497C30.548 20.8748 30.8342 20.9933 31.0452 21.2043C31.2561 21.4153 31.3747 21.7014 31.3747 21.9998Z" fill="#475467"/>
</svg>
