<svg width="256" height="256" viewBox="0 0 256 256" fill="none" xmlns="http://www.w3.org/2000/svg">
<path d="M128 244.7C194.618 244.7 248.622 213.52 248.622 175.058C248.622 136.595 194.618 105.416 128 105.416C61.3823 105.416 7.37793 136.595 7.37793 175.058C7.37793 213.52 61.3823 244.7 128 244.7Z" fill="#F0F0F0"/>
<path d="M103.04 227.83C126.012 227.83 144.635 217.079 144.635 203.817C144.635 190.555 126.012 179.804 103.04 179.804C80.0677 179.804 61.4451 190.555 61.4451 203.817C61.4451 217.079 80.0677 227.83 103.04 227.83Z" fill="#E0E0E0"/>
<path d="M221.327 173.773L216.448 170.957C216.448 170.957 215.255 160.512 216.049 152.422C217.165 141.056 224.507 127.375 233.262 130.591C242.017 133.806 229.248 145.377 226.407 155.018C223.565 164.659 221.327 173.773 221.327 173.773Z" fill="#BA68C8"/>
<path opacity="0.15" d="M221.327 173.773L216.448 170.957C216.448 170.957 215.255 160.512 216.049 152.422C217.165 141.056 224.507 127.375 233.262 130.591C242.017 133.806 229.248 145.377 226.407 155.018C223.565 164.659 221.327 173.773 221.327 173.773Z" fill="black"/>
<path d="M218.762 172.59C218.84 172.586 218.913 172.552 218.966 172.494C219.019 172.437 219.047 172.361 219.044 172.283C218.189 147.026 230.764 134.318 230.887 134.195C230.942 134.14 230.973 134.064 230.973 133.985C230.973 133.907 230.942 133.831 230.887 133.775C230.859 133.748 230.827 133.726 230.792 133.711C230.756 133.697 230.718 133.689 230.679 133.689C230.641 133.689 230.602 133.697 230.567 133.711C230.531 133.726 230.499 133.748 230.472 133.775C230.339 133.898 217.585 146.79 218.45 172.303C218.451 172.343 218.461 172.382 218.477 172.418C218.493 172.453 218.517 172.486 218.546 172.512C218.575 172.539 218.609 172.56 218.646 172.573C218.684 172.586 218.723 172.592 218.762 172.59Z" fill="white"/>
<path d="M224.394 175.529L220.923 173.527C220.923 173.527 220.329 166.359 223.847 157.655C226.919 150.077 234.496 143.785 238.316 145.106C242.135 146.427 242.038 149.135 240.174 151.977C238.311 154.819 226.99 161.582 224.394 175.529Z" fill="#BA68C8"/>
<path d="M222.561 174.771C222.64 174.77 222.714 174.738 222.77 174.683C222.825 174.627 222.857 174.553 222.858 174.474C222.787 158.5 237.783 147.707 237.937 147.599C237.969 147.578 237.996 147.549 238.017 147.517C238.038 147.484 238.051 147.447 238.058 147.409C238.064 147.371 238.062 147.331 238.053 147.294C238.044 147.256 238.027 147.221 238.003 147.19C237.958 147.127 237.89 147.084 237.813 147.07C237.737 147.057 237.658 147.074 237.594 147.118C237.44 147.226 222.198 158.203 222.264 174.474C222.264 174.553 222.296 174.629 222.351 174.684C222.407 174.74 222.483 174.771 222.561 174.771Z" fill="white"/>
<path d="M40.7858 167.501L45.2914 164.459C45.2914 164.459 47.2728 152.683 45.4296 142.295C42.8389 127.723 32.7679 122.88 29.1839 124.416C25.5999 125.952 24.8319 130.288 31.5237 138.603C35.4917 143.493 40.6475 153.933 40.7858 167.501Z" fill="#BA68C8"/>
<g opacity="0.15">
<path d="M40.7858 167.501L45.2914 164.459C45.2914 164.459 47.2728 152.683 45.4296 142.295C42.8389 127.723 32.7679 122.88 29.1839 124.416C25.5999 125.952 24.8319 130.288 31.5237 138.603C35.4917 143.493 40.6475 153.933 40.7858 167.501Z" fill="black"/>
</g>
<path d="M42.3324 161.664H42.2864C42.2403 161.661 42.1954 161.648 42.1546 161.627C42.1138 161.605 42.0779 161.576 42.0494 161.539C42.0209 161.503 42.0004 161.461 41.9891 161.417C41.9779 161.372 41.9763 161.325 41.9843 161.28C43.6124 147.563 37.8217 132.674 31.519 126.75C31.4583 126.689 31.4243 126.606 31.4243 126.52C31.4243 126.434 31.4583 126.351 31.519 126.29C31.549 126.259 31.5849 126.235 31.6244 126.218C31.664 126.201 31.7065 126.193 31.7494 126.193C31.7923 126.193 31.8348 126.201 31.8744 126.218C31.9139 126.235 31.9498 126.259 31.9798 126.29C38.4003 132.321 44.2985 147.456 42.6499 161.372C42.6402 161.45 42.603 161.523 42.5448 161.576C42.4867 161.63 42.4114 161.661 42.3324 161.664Z" fill="white"/>
<path d="M28.9895 175.457C28.2727 175.887 26.1837 174.336 25.6051 173.962C24.6136 173.315 23.8059 172.422 23.2602 171.371C22.648 170.18 22.4208 168.827 22.6099 167.501C22.7148 166.808 22.8671 166.124 23.0656 165.453C23.2448 164.782 23.424 164.111 23.5776 163.435C23.8047 162.778 23.8919 162.08 23.8336 161.387C23.6339 160.02 22.4 159.083 21.2736 158.28C20.0346 157.384 18.7136 156.201 18.7136 154.552C18.7768 153.257 19.2726 152.02 20.1216 151.04C20.8896 150.016 21.8112 149.125 22.5024 148.055C23.0429 147.313 23.3188 146.412 23.2858 145.495C23.1968 144.93 22.9948 144.388 22.6919 143.903C22.0877 142.838 21.3043 141.855 20.8794 140.723C20.4544 139.592 20.4851 138.137 21.3914 137.293C22.1133 136.601 23.2141 136.489 24.2125 136.535C25.1533 136.629 26.0621 136.927 26.8749 137.41C29.5219 138.818 31.0784 141.89 33.8791 142.96C34.9594 143.37 36.137 143.442 37.2583 143.718C38.3795 143.995 39.5367 144.543 40.0743 145.561C41.1341 147.584 39.2858 150.134 40.0435 152.279C40.7194 154.184 42.6035 154.88 43.6685 156.585C44.1007 157.342 44.2801 158.217 44.1805 159.083C44.1204 160.545 43.7924 161.984 43.2128 163.328C42.5462 164.721 41.7938 166.072 40.96 167.373C40.96 167.373 29.097 175.391 28.9895 175.457Z" fill="#BA68C8"/>
<path d="M35.9117 171.213C35.8687 171.212 35.8262 171.203 35.7867 171.186C35.7472 171.169 35.7114 171.144 35.6815 171.113C35.6515 171.082 35.628 171.046 35.6121 171.006C35.5963 170.966 35.5885 170.923 35.5891 170.88C35.8759 157.916 29.4963 143.744 24.9805 139.648C24.9163 139.59 24.8776 139.509 24.8728 139.423C24.868 139.337 24.8975 139.252 24.9549 139.187C24.9849 139.156 25.0208 139.132 25.0603 139.116C25.0999 139.099 25.1424 139.09 25.1853 139.09C25.2282 139.09 25.2707 139.099 25.3103 139.116C25.3498 139.132 25.3857 139.156 25.4157 139.187C30.0237 143.334 36.5312 157.752 36.2394 170.895C36.2387 170.938 36.2297 170.979 36.2129 171.018C36.1961 171.057 36.1717 171.092 36.1413 171.122C36.1109 171.151 36.0749 171.175 36.0355 171.19C35.9961 171.206 35.9541 171.213 35.9117 171.213Z" fill="white"/>
<path d="M33.5207 155.417C33.4905 155.425 33.4588 155.425 33.4286 155.417C29.2404 154.209 24.0487 154.086 23.9975 154.081C23.9547 154.08 23.9125 154.071 23.8733 154.054C23.834 154.037 23.7986 154.012 23.7691 153.981C23.7395 153.95 23.7165 153.914 23.7012 153.874C23.6859 153.834 23.6787 153.791 23.6801 153.748C23.6793 153.705 23.6875 153.662 23.7041 153.622C23.7208 153.582 23.7455 153.546 23.7768 153.516C23.8081 153.487 23.8452 153.464 23.8859 153.449C23.9265 153.434 23.9698 153.428 24.0129 153.431C24.0641 153.431 29.3377 153.559 33.6078 154.788C33.6903 154.813 33.7597 154.869 33.8009 154.945C33.8421 155.02 33.8518 155.109 33.8279 155.192C33.808 155.258 33.7673 155.315 33.7119 155.356C33.6565 155.397 33.5894 155.418 33.5207 155.417Z" fill="white"/>
<path d="M154.194 158.587L152.253 157.466C151.93 157.256 151.661 156.972 151.468 156.639C151.275 156.305 151.163 155.931 151.142 155.546V74.8954C151.163 74.5112 151.275 74.1372 151.467 73.8037C151.659 73.4702 151.926 73.1865 152.248 72.9754L206.187 41.8356C206.531 41.6615 206.911 41.5708 207.296 41.5708C207.681 41.5708 208.061 41.6615 208.404 41.8356L210.345 42.9569C210.668 43.1668 210.937 43.4501 211.13 43.7838C211.324 44.1174 211.435 44.492 211.456 44.8769V125.527C211.435 125.911 211.324 126.285 211.132 126.619C210.94 126.952 210.672 127.236 210.35 127.447L156.411 158.592C156.067 158.767 155.687 158.857 155.302 158.856C154.916 158.855 154.537 158.763 154.194 158.587Z" fill="#455A64"/>
<path d="M211.456 44.6977C211.379 44.1242 210.913 43.9143 210.355 44.2369L156.411 75.3818C156.085 75.5865 155.815 75.87 155.628 76.2062L151.465 73.8049C151.651 73.4662 151.921 73.1807 152.248 72.9754L206.188 41.8356C206.531 41.6615 206.911 41.5708 207.296 41.5708C207.681 41.5708 208.061 41.6615 208.405 41.8356L210.345 42.9569C210.645 43.1498 210.899 43.4053 211.091 43.7058C211.283 44.0062 211.407 44.3446 211.456 44.6977Z" fill="#455A64"/>
<path d="M156.221 158.679C155.894 158.812 155.541 158.873 155.188 158.858C154.835 158.843 154.489 158.752 154.173 158.592L152.228 157.465C151.906 157.254 151.638 156.971 151.446 156.637C151.254 156.304 151.143 155.93 151.122 155.545V74.8953C151.135 74.5102 151.246 74.1349 151.444 73.8047L155.607 76.206C155.405 76.5366 155.292 76.9142 155.279 77.3016V157.952C155.3 158.587 155.699 158.879 156.221 158.679Z" fill="#263238"/>
<path d="M155.3 77.3119V157.952C155.3 158.658 155.812 158.945 156.411 158.592L210.35 127.447C210.672 127.236 210.94 126.952 211.132 126.619C211.324 126.285 211.435 125.911 211.456 125.527V44.8767C211.456 44.1701 210.944 43.8834 210.35 44.2367L156.411 75.3817C156.086 75.5926 155.816 75.8775 155.623 76.2131C155.43 76.5486 155.319 76.9252 155.3 77.3119Z" fill="#37474F"/>
<path d="M142.705 108.032C142.008 107.618 138.778 105.779 138.609 105.682C138.477 105.604 138.365 105.496 138.28 105.369C138.195 105.241 138.14 105.096 138.119 104.944C138.098 104.792 138.111 104.637 138.158 104.491C138.204 104.345 138.283 104.212 138.389 104.1L151.142 90.4194L155.3 92.8053L142.551 106.496C142.451 106.603 142.375 106.73 142.328 106.868C142.281 107.007 142.264 107.154 142.279 107.299C142.293 107.445 142.339 107.585 142.412 107.712C142.486 107.838 142.585 107.948 142.705 108.032Z" fill="#455A64"/>
<path d="M155.3 92.8208L142.551 106.496C142.409 106.647 142.317 106.838 142.286 107.043C142.255 107.248 142.287 107.457 142.377 107.643C142.468 107.83 142.612 107.984 142.792 108.087C142.972 108.189 143.179 108.234 143.386 108.217L155.3 107.234V92.8208Z" fill="#37474F"/>
<path d="M183.378 68.1986C189.665 64.5686 194.76 67.5126 194.76 74.7727C194.76 82.0329 189.665 90.8546 183.378 94.4847C177.09 98.1148 171.996 95.1708 171.996 87.9158C171.996 80.6607 177.09 71.8287 183.378 68.1986Z" fill="#BA68C8"/>
<path d="M183.296 73.9126C185.344 72.735 186.988 73.6873 186.988 76.0425C186.918 77.3228 186.547 78.5686 185.906 79.6788C185.264 80.789 184.37 81.7323 183.296 82.4323C181.248 83.6099 179.599 82.6575 179.599 80.3023C179.67 79.0216 180.041 77.7756 180.683 76.6653C181.326 75.5551 182.221 74.612 183.296 73.9126Z" fill="white"/>
<path d="M190.577 86.4668C190.577 82.6012 187.858 81.0294 184.509 82.9647L182.415 84.173C179.067 86.1084 176.348 90.829 176.348 94.6844V95.7442C176.98 95.9463 177.64 96.0482 178.304 96.0463C180.1 95.9853 181.849 95.4558 183.378 94.5103C186.288 92.7176 188.751 90.2833 190.577 87.3935V86.4668Z" fill="white"/>
<path d="M176.169 130.422L190.587 122.097C191.201 121.743 191.698 122.03 191.698 122.737V127.38C191.677 127.765 191.566 128.14 191.373 128.474C191.18 128.807 190.91 129.09 190.587 129.3L176.169 137.626C175.555 137.979 175.058 137.692 175.058 136.986V132.342C175.079 131.957 175.191 131.582 175.384 131.249C175.577 130.915 175.846 130.632 176.169 130.422Z" fill="#BA68C8"/>
<path d="M169.109 120.049L197.632 103.572C198.364 103.147 198.963 103.491 198.963 104.34V106.066C198.938 106.528 198.805 106.977 198.573 107.377C198.342 107.778 198.02 108.118 197.632 108.37L169.093 124.846C168.361 125.271 167.767 124.928 167.767 124.078V122.368C167.79 121.903 167.924 121.45 168.158 121.046C168.391 120.643 168.717 120.301 169.109 120.049Z" fill="#FAFAFA"/>
<path d="M172.447 108.124C172.836 107.899 173.138 107.863 173.353 108.022C173.568 108.18 173.676 108.534 173.676 109.076C173.686 109.572 173.576 110.062 173.353 110.505C173.152 110.905 172.836 111.237 172.447 111.457L171.679 111.903V113.556C171.677 113.613 171.663 113.669 171.638 113.72C171.62 113.767 171.587 113.806 171.546 113.833L171.157 114.058C171.143 114.068 171.127 114.074 171.11 114.074C171.094 114.074 171.078 114.068 171.064 114.058C171.037 114.024 171.024 113.979 171.029 113.935V109.148C171.028 109.092 171.04 109.036 171.064 108.984C171.084 108.939 171.116 108.9 171.157 108.872L172.447 108.124ZM171.679 110.976L172.421 110.546C172.601 110.445 172.752 110.3 172.861 110.126C172.978 109.92 173.035 109.686 173.025 109.45C173.025 109.174 172.969 109.015 172.861 108.969C172.786 108.951 172.706 108.95 172.63 108.967C172.554 108.983 172.482 109.018 172.421 109.066L171.679 109.496V110.976Z" fill="#FAFAFA"/>
<path d="M175.821 106.173C175.872 106.143 175.913 106.143 175.939 106.173C175.971 106.219 175.994 106.272 176.005 106.327L177.188 110.331C177.188 110.331 177.188 110.362 177.188 110.377C177.187 110.434 177.173 110.49 177.147 110.541C177.129 110.587 177.097 110.627 177.055 110.653L176.707 110.853C176.645 110.889 176.599 110.894 176.573 110.853C176.549 110.827 176.531 110.796 176.522 110.761L176.312 110.06L174.776 110.94L174.572 111.882C174.557 111.933 174.538 111.983 174.515 112.031C174.49 112.093 174.442 112.144 174.382 112.174L174.034 112.374C174.021 112.385 174.005 112.391 173.988 112.391C173.971 112.391 173.955 112.385 173.942 112.374C173.915 112.341 173.902 112.298 173.906 112.256C173.903 112.237 173.903 112.218 173.906 112.2L175.084 106.834C175.098 106.755 175.12 106.678 175.15 106.604C175.175 106.55 175.216 106.505 175.268 106.476L175.821 106.173ZM176.087 109.276L175.575 107.469L175.063 109.885L176.087 109.276Z" fill="#FAFAFA"/>
<path d="M178.98 104.274C179.151 104.166 179.346 104.101 179.548 104.085C179.691 104.072 179.834 104.104 179.958 104.177C180.07 104.25 180.158 104.355 180.209 104.479C180.265 104.605 180.296 104.741 180.301 104.878C180.304 104.935 180.292 104.992 180.265 105.042C180.247 105.089 180.215 105.128 180.173 105.155L179.835 105.349C179.779 105.38 179.738 105.385 179.712 105.349C179.68 105.329 179.654 105.3 179.635 105.268C179.615 105.221 179.585 105.18 179.548 105.146C179.511 105.111 179.468 105.085 179.42 105.068C179.264 105.046 179.106 105.086 178.98 105.18C178.897 105.234 178.818 105.294 178.744 105.36C178.668 105.43 178.601 105.509 178.545 105.595C178.49 105.679 178.446 105.768 178.412 105.861C178.381 105.95 178.366 106.044 178.365 106.138C178.359 106.224 178.375 106.31 178.412 106.389C178.427 106.416 178.45 106.44 178.476 106.456C178.503 106.473 178.534 106.484 178.565 106.486C178.66 106.503 178.757 106.503 178.852 106.486L179.297 106.389C179.463 106.34 179.636 106.319 179.809 106.327C179.933 106.327 180.053 106.366 180.152 106.44C180.246 106.519 180.314 106.624 180.347 106.742C180.397 106.908 180.42 107.081 180.413 107.254C180.413 107.483 180.38 107.71 180.316 107.93C180.254 108.156 180.162 108.372 180.045 108.575C179.921 108.783 179.773 108.975 179.605 109.148C179.432 109.327 179.236 109.48 179.021 109.604C178.863 109.7 178.69 109.768 178.509 109.804C178.362 109.832 178.209 109.82 178.069 109.768C177.941 109.709 177.835 109.61 177.766 109.486C177.683 109.328 177.637 109.153 177.633 108.974C177.633 108.916 177.645 108.858 177.669 108.805C177.692 108.762 177.725 108.725 177.766 108.698L178.104 108.503C178.156 108.473 178.197 108.462 178.227 108.478C178.258 108.493 178.278 108.519 178.299 108.565C178.32 108.617 178.348 108.667 178.381 108.713C178.413 108.758 178.457 108.792 178.509 108.811C178.576 108.826 178.646 108.826 178.714 108.811C178.822 108.785 178.926 108.742 179.021 108.683C179.12 108.626 179.214 108.561 179.302 108.488C179.475 108.352 179.612 108.176 179.702 107.976C179.743 107.873 179.764 107.764 179.763 107.653C179.768 107.613 179.765 107.573 179.753 107.534C179.742 107.495 179.723 107.459 179.697 107.428C179.669 107.404 179.636 107.386 179.601 107.375C179.566 107.364 179.528 107.362 179.492 107.367C179.376 107.371 179.26 107.39 179.149 107.423C179.016 107.454 178.862 107.49 178.683 107.52C178.546 107.555 178.404 107.565 178.263 107.551C178.152 107.544 178.047 107.499 177.966 107.423C177.878 107.336 177.815 107.226 177.787 107.106C177.746 106.928 177.727 106.745 177.731 106.563C177.73 106.337 177.763 106.113 177.828 105.897C177.889 105.675 177.978 105.462 178.094 105.262C178.205 105.064 178.339 104.881 178.493 104.715C178.634 104.545 178.798 104.397 178.98 104.274Z" fill="#FAFAFA"/>
<path d="M182.344 102.339C182.514 102.227 182.709 102.16 182.912 102.144C183.055 102.132 183.198 102.164 183.322 102.236C183.431 102.311 183.516 102.416 183.567 102.538C183.623 102.664 183.655 102.8 183.659 102.938C183.665 102.995 183.653 103.052 183.624 103.102C183.606 103.148 183.573 103.187 183.531 103.214L183.194 103.409C183.142 103.439 183.101 103.45 183.071 103.409C183.038 103.388 183.013 103.358 182.999 103.322C182.952 103.232 182.874 103.163 182.779 103.127C182.702 103.116 182.625 103.12 182.55 103.139C182.475 103.159 182.405 103.193 182.344 103.24C182.258 103.292 182.178 103.352 182.103 103.419C182.029 103.489 181.963 103.568 181.908 103.655C181.852 103.737 181.807 103.826 181.775 103.921C181.743 104.01 181.726 104.103 181.724 104.197C181.718 104.283 181.734 104.37 181.77 104.448C181.786 104.476 181.808 104.499 181.835 104.516C181.862 104.533 181.892 104.543 181.924 104.545C182.019 104.562 182.116 104.562 182.211 104.545L182.656 104.448C182.823 104.402 182.995 104.381 183.168 104.387C183.292 104.386 183.412 104.425 183.511 104.499C183.605 104.579 183.674 104.684 183.711 104.801C183.756 104.968 183.777 105.141 183.772 105.313C183.772 105.542 183.739 105.77 183.675 105.989C183.612 106.215 183.521 106.432 183.403 106.634C183.28 106.844 183.132 107.038 182.963 107.213C182.79 107.387 182.596 107.539 182.385 107.663C182.227 107.759 182.054 107.827 181.873 107.863C181.727 107.891 181.576 107.879 181.437 107.827C181.307 107.77 181.199 107.671 181.13 107.546C181.046 107.388 181.002 107.212 181.002 107.034C180.996 106.977 181.009 106.919 181.038 106.87C181.056 106.824 181.088 106.784 181.13 106.757L181.468 106.563C181.519 106.532 181.565 106.522 181.591 106.537C181.609 106.545 181.625 106.557 181.637 106.572C181.649 106.587 181.658 106.605 181.663 106.624C181.686 106.676 181.713 106.725 181.745 106.773C181.778 106.818 181.825 106.851 181.878 106.87C181.945 106.885 182.015 106.885 182.083 106.87C182.191 106.844 182.295 106.801 182.39 106.742C182.487 106.684 182.579 106.619 182.666 106.547C182.756 106.477 182.835 106.394 182.902 106.302C182.968 106.213 183.023 106.117 183.066 106.015C183.107 105.912 183.127 105.803 183.127 105.692C183.132 105.652 183.128 105.612 183.117 105.573C183.106 105.534 183.086 105.498 183.06 105.467C183.033 105.443 183 105.424 182.965 105.414C182.929 105.403 182.892 105.4 182.856 105.406C182.741 105.413 182.628 105.431 182.518 105.462C182.385 105.493 182.226 105.528 182.052 105.559C181.913 105.593 181.769 105.604 181.627 105.59C181.516 105.584 181.41 105.539 181.33 105.462C181.243 105.375 181.183 105.265 181.156 105.144C181.11 104.969 181.09 104.788 181.094 104.607C181.096 104.38 181.129 104.154 181.192 103.936C181.255 103.715 181.344 103.502 181.458 103.301C181.569 103.102 181.705 102.918 181.862 102.753C182 102.591 182.163 102.451 182.344 102.339Z" fill="#FAFAFA"/>
<path d="M186.076 102.979L185.662 105.431C185.649 105.505 185.629 105.577 185.6 105.646C185.58 105.701 185.542 105.748 185.493 105.779L185.103 106.005C185.052 106.035 185.016 106.035 184.991 106.005C184.956 105.962 184.937 105.91 184.934 105.856L184.32 101.53C184.32 101.53 184.32 101.489 184.32 101.473C184.322 101.416 184.336 101.36 184.361 101.31C184.38 101.264 184.412 101.225 184.453 101.197L184.806 100.992C184.836 100.98 184.869 100.98 184.899 100.992C184.929 100.992 184.95 101.033 184.96 101.115L185.365 104.028L185.718 101.842C185.727 101.787 185.742 101.734 185.764 101.683C185.784 101.619 185.828 101.564 185.887 101.53L186.281 101.299C186.337 101.269 186.378 101.274 186.404 101.299C186.426 101.332 186.442 101.368 186.45 101.407L186.808 103.183L187.213 99.8042C187.218 99.7378 187.237 99.6731 187.269 99.6148C187.293 99.5765 187.324 99.5435 187.361 99.5175L187.715 99.3127C187.728 99.3028 187.744 99.2974 187.761 99.2974C187.777 99.2974 187.793 99.3028 187.807 99.3127C187.821 99.3295 187.832 99.349 187.84 99.3701C187.847 99.3912 187.849 99.4134 187.848 99.4356C187.85 99.456 187.85 99.4766 187.848 99.497L187.233 104.53C187.223 104.604 187.204 104.676 187.177 104.745C187.154 104.8 187.114 104.846 187.064 104.878L186.67 105.103C186.624 105.129 186.588 105.129 186.563 105.103C186.537 105.056 186.516 105.007 186.501 104.955L186.076 102.979Z" fill="#FAFAFA"/>
<path d="M188.472 100.808C188.484 100.524 188.518 100.241 188.575 99.9629C188.633 99.6908 188.723 99.4262 188.841 99.1744C188.954 98.9295 189.099 98.7005 189.271 98.4934C189.446 98.2879 189.656 98.1146 189.891 97.9814C190.071 97.859 190.282 97.7899 190.5 97.7817C190.663 97.7835 190.818 97.8477 190.935 97.9609C191.059 98.1003 191.149 98.2669 191.196 98.4473C191.262 98.6825 191.299 98.9251 191.304 99.1693C191.304 99.2614 191.304 99.3638 191.304 99.4765C191.304 99.5891 191.304 99.7069 191.304 99.8297C191.304 99.9526 191.304 100.07 191.304 100.183C191.304 100.296 191.304 100.403 191.304 100.5C191.293 100.783 191.259 101.064 191.201 101.34C191.142 101.611 191.055 101.876 190.94 102.129C190.824 102.373 190.678 102.601 190.505 102.81C190.33 103.013 190.123 103.186 189.891 103.322C189.706 103.443 189.492 103.512 189.271 103.521C189.191 103.523 189.112 103.508 189.038 103.478C188.964 103.448 188.897 103.404 188.841 103.347C188.708 103.204 188.616 103.027 188.575 102.835C188.514 102.599 188.48 102.357 188.472 102.113C188.472 102.021 188.472 101.919 188.472 101.806C188.472 101.693 188.472 101.576 188.472 101.453C188.472 101.33 188.472 101.217 188.472 101.1C188.472 100.982 188.467 100.9 188.472 100.808ZM190.654 99.584C190.665 99.4587 190.651 99.3324 190.612 99.2128C190.573 99.0931 190.511 98.9825 190.428 98.8877C190.295 98.7699 190.111 98.775 189.891 98.8877C189.652 99.0281 189.462 99.2392 189.348 99.4918C189.203 99.7903 189.126 100.117 189.123 100.449C189.123 100.639 189.123 100.849 189.123 101.079C189.123 101.309 189.123 101.514 189.123 101.699C189.111 101.824 189.125 101.95 189.164 102.07C189.203 102.189 189.265 102.3 189.348 102.395C189.481 102.508 189.665 102.497 189.891 102.369C190.126 102.228 190.313 102.019 190.428 101.77C190.574 101.474 190.651 101.148 190.654 100.818C190.654 100.623 190.654 100.413 190.654 100.183C190.654 99.9526 190.659 99.7683 190.654 99.584Z" fill="#FAFAFA"/>
<path d="M193.536 95.9389C193.94 95.7085 194.243 95.6726 194.452 95.8416C194.577 95.9787 194.669 96.1416 194.723 96.3186C194.777 96.4957 194.792 96.6824 194.765 96.8656C194.769 97.2134 194.715 97.5594 194.606 97.8896C194.502 98.1972 194.34 98.4821 194.13 98.7293L194.796 100.178C194.798 100.202 194.798 100.226 194.796 100.25C194.796 100.296 194.785 100.342 194.765 100.383C194.751 100.42 194.726 100.452 194.693 100.475L194.284 100.711C194.217 100.747 194.171 100.752 194.14 100.711C194.113 100.684 194.091 100.653 194.074 100.619L193.444 99.2515L192.804 99.6202V101.351C192.804 101.407 192.792 101.463 192.768 101.515C192.747 101.559 192.715 101.598 192.676 101.627L192.287 101.852C192.274 101.863 192.258 101.869 192.241 101.869C192.224 101.869 192.207 101.863 192.195 101.852C192.18 101.837 192.169 101.818 192.162 101.798C192.155 101.778 192.152 101.756 192.154 101.735V96.9475C192.155 96.8906 192.169 96.8346 192.195 96.7837C192.213 96.7373 192.245 96.6979 192.287 96.671L193.536 95.9389ZM192.814 98.6934L193.536 98.3043C193.712 98.2058 193.863 98.0673 193.976 97.8998C194.095 97.7026 194.152 97.4744 194.14 97.2445C194.14 96.968 194.084 96.8144 193.976 96.7837C193.82 96.7625 193.663 96.8029 193.536 96.8963L192.84 97.2957L192.814 98.6934Z" fill="#FAFAFA"/>
<path d="M196.966 93.9674C197.152 93.8462 197.365 93.7723 197.586 93.7524C197.746 93.7465 197.902 93.8034 198.021 93.9111C198.157 94.0537 198.251 94.2308 198.293 94.4231C198.361 94.677 198.399 94.9383 198.405 95.2013C198.405 95.5597 198.405 95.9284 198.405 96.3021C198.395 96.607 198.357 96.9102 198.293 97.2084C198.234 97.4854 198.145 97.755 198.026 98.0122C197.912 98.2484 197.767 98.4687 197.596 98.6676C197.425 98.8711 197.221 99.0442 196.992 99.1796L195.779 99.84C195.766 99.8509 195.749 99.8568 195.733 99.8568C195.716 99.8568 195.699 99.8509 195.686 99.84C195.672 99.8246 195.66 99.806 195.653 99.7857C195.646 99.7653 195.643 99.7437 195.645 99.7223V94.9351C195.647 94.8781 195.661 94.8222 195.686 94.7713C195.705 94.7249 195.737 94.6855 195.779 94.6586L196.966 93.9674ZM197.755 95.5597C197.753 95.4211 197.732 95.2833 197.693 95.1501C197.67 95.0493 197.618 94.9571 197.545 94.8839C197.513 94.8518 197.474 94.8265 197.432 94.8098C197.39 94.7931 197.345 94.7852 197.299 94.7866C197.171 94.7952 197.047 94.8376 196.941 94.9095L196.296 95.2781V98.6164L196.966 98.2324C197.096 98.1568 197.212 98.0599 197.309 97.9457C197.405 97.8334 197.486 97.7095 197.55 97.577C197.614 97.4359 197.662 97.2883 197.693 97.1367C197.729 96.9786 197.75 96.8174 197.755 96.6554C197.77 96.2816 197.77 95.9181 197.755 95.5597Z" fill="#FAFAFA"/>
<path d="M126.659 19.6557C127.542 19.8524 128.394 20.173 129.188 20.608C129.948 21.0168 130.629 21.5577 131.2 22.2055C131.746 22.8286 132.151 23.5621 132.388 24.3559C132.629 25.2056 132.647 26.1034 132.439 26.962C132.302 27.6427 132.032 28.2898 131.645 28.8666C131.292 29.3598 130.872 29.8011 130.396 30.1773C129.929 30.5401 129.43 30.8605 128.906 31.1348L127.432 31.9181C126.987 32.1498 126.566 32.4223 126.172 32.7322C125.816 33.0054 125.543 33.3724 125.384 33.792C125.306 33.9838 125.176 34.1503 125.01 34.2733C124.931 34.3345 124.839 34.3769 124.742 34.3973C124.644 34.4177 124.543 34.4156 124.447 34.3911L122.276 33.9098C122.171 33.8879 122.072 33.8453 121.984 33.7847C121.896 33.724 121.821 33.6465 121.764 33.5565C121.703 33.4729 121.662 33.376 121.645 33.2737C121.628 33.1714 121.635 33.0666 121.667 32.9677C121.841 32.2954 122.149 31.6651 122.573 31.1143C122.959 30.627 123.406 30.1917 123.904 29.8189C124.389 29.464 124.903 29.1506 125.44 28.882C125.952 28.6208 126.464 28.37 126.909 28.1191C127.324 27.8964 127.713 27.6303 128.072 27.3255C128.386 27.0623 128.604 26.7021 128.691 26.3015C128.773 25.9536 128.769 25.5912 128.679 25.2452C128.59 24.8993 128.419 24.5801 128.179 24.3149C127.58 23.6612 126.78 23.2268 125.906 23.081C124.288 22.7226 122.923 23.267 121.81 24.7143C121.702 24.8723 121.567 25.0093 121.411 25.1188C121.234 25.2064 121.03 25.2211 120.842 25.1597L118.533 24.6477C118.368 24.6159 118.223 24.5202 118.129 24.3815C118.078 24.3074 118.044 24.2233 118.029 24.1349C118.014 24.0466 118.018 23.9561 118.042 23.8695C118.238 23.158 118.603 22.5046 119.107 21.9648C119.674 21.3389 120.349 20.8188 121.098 20.4288C121.918 20 122.801 19.7061 123.715 19.5584C124.693 19.3993 125.693 19.4323 126.659 19.6557ZM124.206 36.1319C124.409 36.1796 124.586 36.3048 124.697 36.4809C124.809 36.6569 124.848 36.8698 124.805 37.074L124.252 39.5828C124.233 39.6878 124.193 39.7877 124.133 39.8759C124.073 39.9642 123.995 40.0387 123.904 40.0948C123.818 40.1538 123.721 40.1944 123.619 40.2138C123.517 40.2332 123.411 40.231 123.31 40.2074L120.832 39.6391C120.727 39.6213 120.626 39.581 120.538 39.5209C120.45 39.4608 120.375 39.3824 120.32 39.2909C120.263 39.2044 120.223 39.1072 120.205 39.005C120.186 38.9029 120.189 38.7981 120.212 38.697L120.771 36.1882C120.818 35.9848 120.943 35.808 121.119 35.6952C121.295 35.5825 121.508 35.5426 121.713 35.584L124.206 36.1319Z" fill="#BA68C8"/>
<path d="M129.393 43.6738C130.009 43.5749 130.636 43.5628 131.256 43.6379C131.848 43.7083 132.424 43.8816 132.956 44.1499C133.463 44.413 133.91 44.7792 134.267 45.2251C134.588 45.6615 134.814 46.1604 134.93 46.6895C135.047 47.2186 135.051 47.7663 134.943 48.2971C134.845 48.7053 134.688 49.0969 134.477 49.4594C134.273 49.812 134.036 50.1445 133.77 50.4527C133.509 50.7599 133.258 51.0517 133.028 51.3333C132.802 51.5956 132.602 51.8785 132.429 52.1781C132.267 52.4407 132.185 52.745 132.193 53.0536C132.189 53.1978 132.148 53.3386 132.075 53.4632C132.038 53.5206 131.99 53.5695 131.932 53.6066C131.875 53.6436 131.81 53.6681 131.743 53.6782L130.207 53.924C130.135 53.937 130.061 53.9356 129.99 53.9198C129.919 53.9039 129.851 53.8741 129.792 53.8319C129.731 53.7938 129.681 53.742 129.644 53.6805C129.608 53.6191 129.587 53.5499 129.582 53.4786C129.518 53.0021 129.553 52.5175 129.684 52.0552C129.805 51.6459 129.977 51.2536 130.196 50.8878C130.412 50.5368 130.659 50.2061 130.934 49.8997C131.205 49.5925 131.446 49.3058 131.681 49.0293C131.892 48.7824 132.074 48.5128 132.224 48.2255C132.357 47.9782 132.406 47.694 132.362 47.4165C132.324 47.1722 132.227 46.9409 132.08 46.7421C131.933 46.5433 131.74 46.383 131.517 46.2747C130.967 46.0088 130.344 45.9332 129.746 46.0597C129.204 46.1389 128.701 46.3836 128.304 46.7603C127.907 47.1371 127.636 47.6274 127.529 48.164C127.499 48.2931 127.447 48.416 127.375 48.5275C127.284 48.6247 127.16 48.6849 127.027 48.6965L125.409 48.9576C125.296 48.9794 125.178 48.9555 125.082 48.891C125.032 48.8572 124.991 48.8132 124.96 48.7619C124.929 48.7107 124.909 48.6535 124.902 48.5941C124.854 48.086 124.933 47.574 125.133 47.1042C125.335 46.5575 125.633 46.0512 126.013 45.6091C126.43 45.125 126.921 44.7102 127.468 44.3803C128.057 44.0225 128.711 43.7826 129.393 43.6738ZM132.035 54.861C132.105 54.8498 132.177 54.8526 132.246 54.8693C132.316 54.886 132.381 54.9162 132.439 54.9582C132.499 54.9979 132.551 55.0499 132.589 55.1108C132.628 55.1717 132.654 55.2401 132.664 55.3115L132.951 57.0677C132.973 57.2101 132.938 57.3556 132.854 57.4725C132.77 57.5895 132.643 57.6684 132.5 57.6923L130.785 57.9739C130.643 57.9959 130.498 57.961 130.381 57.8767C130.321 57.8365 130.271 57.7843 130.233 57.7234C130.195 57.6625 130.171 57.5944 130.161 57.5234L129.874 55.7672C129.861 55.6967 129.863 55.6243 129.88 55.5546C129.896 55.485 129.928 55.4196 129.971 55.3627C130.011 55.3033 130.064 55.2531 130.124 55.2151C130.185 55.1772 130.253 55.1525 130.324 55.1426L132.035 54.861Z" fill="#BA68C8"/>
<g opacity="0.2">
<path d="M129.392 43.6738C130.009 43.5749 130.636 43.5628 131.256 43.6379C131.848 43.7083 132.423 43.8816 132.956 44.1499C133.463 44.413 133.909 44.7792 134.267 45.2251C134.588 45.6615 134.814 46.1604 134.93 46.6895C135.047 47.2186 135.051 47.7663 134.942 48.2971C134.845 48.7053 134.688 49.0969 134.477 49.4594C134.273 49.812 134.036 50.1445 133.77 50.4527C133.509 50.7599 133.258 51.0517 133.028 51.3333C132.802 51.5956 132.601 51.8785 132.429 52.1781C132.266 52.4407 132.184 52.745 132.193 53.0536C132.189 53.1978 132.148 53.3386 132.075 53.4632C132.038 53.5206 131.989 53.5695 131.932 53.6066C131.875 53.6436 131.81 53.6681 131.742 53.6782L130.206 53.924C130.135 53.937 130.061 53.9356 129.99 53.9198C129.919 53.9039 129.851 53.8741 129.792 53.8319C129.731 53.7938 129.681 53.742 129.644 53.6805C129.608 53.6191 129.586 53.5499 129.582 53.4786C129.517 53.0021 129.552 52.5175 129.684 52.0552C129.805 51.6459 129.977 51.2536 130.196 50.8878C130.412 50.5368 130.658 50.2061 130.933 49.8997C131.205 49.5925 131.445 49.3058 131.681 49.0293C131.891 48.7824 132.073 48.5128 132.224 48.2255C132.357 47.9782 132.406 47.694 132.362 47.4165C132.323 47.1722 132.227 46.9409 132.079 46.7421C131.932 46.5433 131.739 46.383 131.517 46.2747C130.967 46.0088 130.344 45.9332 129.746 46.0597C129.204 46.1389 128.7 46.3836 128.304 46.7603C127.907 47.1371 127.636 47.6274 127.529 48.164C127.499 48.2931 127.447 48.416 127.375 48.5275C127.284 48.6247 127.16 48.6849 127.027 48.6965L125.409 48.9576C125.295 48.9794 125.178 48.9555 125.081 48.891C125.032 48.8572 124.991 48.8132 124.96 48.7619C124.929 48.7107 124.909 48.6535 124.902 48.5941C124.854 48.086 124.933 47.574 125.133 47.1042C125.335 46.5575 125.633 46.0512 126.013 45.6091C126.43 45.125 126.92 44.7102 127.467 44.3803C128.057 44.0225 128.711 43.7826 129.392 43.6738ZM132.034 54.861C132.105 54.8498 132.177 54.8526 132.246 54.8693C132.316 54.886 132.381 54.9162 132.439 54.9582C132.499 54.9979 132.55 55.0499 132.589 55.1108C132.628 55.1717 132.654 55.2401 132.664 55.3115L132.951 57.0677C132.973 57.2101 132.938 57.3556 132.854 57.4725C132.769 57.5895 132.642 57.6684 132.5 57.6923L130.785 57.9739C130.643 57.9959 130.497 57.961 130.381 57.8767C130.321 57.8365 130.271 57.7843 130.233 57.7234C130.195 57.6625 130.17 57.5944 130.16 57.5234L129.874 55.7672C129.861 55.6967 129.863 55.6243 129.879 55.5546C129.896 55.485 129.927 55.4196 129.971 55.3627C130.011 55.3033 130.063 55.2531 130.124 55.2151C130.185 55.1772 130.253 55.1525 130.324 55.1426L132.034 54.861Z" fill="black"/>
</g>
<path d="M143.872 46.4331C143.942 46.4816 144.001 46.5439 144.046 46.6161C144.091 46.6883 144.121 46.7689 144.133 46.8529C144.15 46.9362 144.148 47.022 144.13 47.1048C144.111 47.1877 144.076 47.2658 144.026 47.3342L142.807 49.0494C142.759 49.1192 142.696 49.1784 142.624 49.2233C142.552 49.2682 142.471 49.2979 142.387 49.3105C142.304 49.3268 142.218 49.3257 142.135 49.3072C142.053 49.2887 141.974 49.2532 141.906 49.203L140.227 48.01C140.157 47.9622 140.098 47.9 140.054 47.8276C140.009 47.7552 139.981 47.6743 139.971 47.5902C139.954 47.5069 139.956 47.4211 139.974 47.3383C139.993 47.2555 140.028 47.1774 140.078 47.1089L141.312 45.3937C141.412 45.2547 141.562 45.1606 141.731 45.1319C141.9 45.1031 142.073 45.142 142.213 45.2401L143.872 46.4331ZM150.958 34.8158C151.57 35.2449 152.116 35.7626 152.576 36.3518C153.025 36.8999 153.372 37.5242 153.6 38.195C153.813 38.8378 153.884 39.5189 153.81 40.1918C153.723 40.9094 153.452 41.5922 153.022 42.1732C152.702 42.643 152.291 43.0436 151.813 43.3508C151.393 43.6145 150.935 43.8146 150.456 43.9448C149.99 44.0667 149.514 44.1489 149.033 44.1905L147.671 44.3134C147.263 44.346 146.858 44.4163 146.463 44.5233C146.098 44.6061 145.764 44.7908 145.5 45.0558C145.381 45.1769 145.23 45.2621 145.065 45.3016C144.986 45.3241 144.904 45.3275 144.823 45.3115C144.743 45.2954 144.668 45.2604 144.604 45.2094L143.119 44.1547C142.978 44.0533 142.88 43.9011 142.848 43.7297C142.829 43.6467 142.83 43.5603 142.85 43.4776C142.871 43.3949 142.91 43.3181 142.966 43.2536C143.313 42.8035 143.746 42.4275 144.241 42.1476C144.686 41.9045 145.161 41.7203 145.654 41.5998C146.13 41.4844 146.614 41.4107 147.103 41.3796C147.584 41.3489 148.035 41.3131 148.454 41.2721C148.839 41.2382 149.218 41.1627 149.586 41.0468C149.908 40.9397 150.185 40.729 150.374 40.4478C150.546 40.2103 150.657 39.935 150.699 39.6453C150.741 39.3556 150.712 39.06 150.615 38.7838C150.373 38.1014 149.91 37.5194 149.299 37.13C148.193 36.3416 146.987 36.316 145.679 37.0532C145.548 37.137 145.402 37.196 145.249 37.2273C145.17 37.2329 145.09 37.2226 145.014 37.1971C144.939 37.1716 144.869 37.1314 144.809 37.0788L143.232 35.9576C143.175 35.9197 143.126 35.8707 143.088 35.8135C143.05 35.7563 143.024 35.6921 143.012 35.6248C143 35.5551 143.002 35.4836 143.019 35.4149C143.035 35.3462 143.066 35.2816 143.109 35.2254C143.481 34.7487 143.965 34.3707 144.517 34.1246C145.145 33.8403 145.817 33.6671 146.504 33.6126C147.259 33.5495 148.02 33.61 148.757 33.7918C149.551 33.9833 150.3 34.3314 150.958 34.8158Z" fill="#BA68C8"/>
<g opacity="0.6">
<path d="M143.872 46.4331C143.942 46.4816 144.001 46.5439 144.046 46.6161C144.091 46.6883 144.121 46.7689 144.133 46.8529C144.15 46.9362 144.148 47.022 144.13 47.1048C144.111 47.1877 144.076 47.2658 144.026 47.3342L142.807 49.0494C142.759 49.1192 142.696 49.1784 142.624 49.2233C142.552 49.2682 142.471 49.2979 142.387 49.3105C142.304 49.3268 142.218 49.3257 142.135 49.3072C142.053 49.2887 141.974 49.2532 141.906 49.203L140.227 48.01C140.157 47.9622 140.098 47.9 140.054 47.8276C140.009 47.7552 139.981 47.6743 139.971 47.5902C139.954 47.5069 139.956 47.4211 139.974 47.3383C139.993 47.2555 140.028 47.1774 140.078 47.1089L141.312 45.3937C141.412 45.2547 141.562 45.1606 141.731 45.1319C141.9 45.1031 142.073 45.142 142.213 45.2401L143.872 46.4331ZM150.958 34.8158C151.57 35.2449 152.116 35.7626 152.576 36.3518C153.025 36.8999 153.372 37.5242 153.6 38.195C153.813 38.8378 153.884 39.5189 153.81 40.1918C153.723 40.9094 153.452 41.5922 153.022 42.1732C152.702 42.643 152.291 43.0436 151.813 43.3508C151.393 43.6145 150.935 43.8146 150.456 43.9448C149.99 44.0667 149.514 44.1489 149.033 44.1905L147.671 44.3134C147.263 44.346 146.858 44.4163 146.463 44.5233C146.098 44.6061 145.764 44.7908 145.5 45.0558C145.381 45.1769 145.23 45.2621 145.065 45.3016C144.986 45.3241 144.904 45.3275 144.823 45.3115C144.743 45.2954 144.668 45.2604 144.604 45.2094L143.119 44.1547C142.978 44.0533 142.88 43.9011 142.848 43.7297C142.829 43.6467 142.83 43.5603 142.85 43.4776C142.871 43.3949 142.91 43.3181 142.966 43.2536C143.313 42.8035 143.746 42.4275 144.241 42.1476C144.686 41.9045 145.161 41.7203 145.654 41.5998C146.13 41.4844 146.614 41.4107 147.103 41.3796C147.584 41.3489 148.035 41.3131 148.454 41.2721C148.839 41.2382 149.218 41.1627 149.586 41.0468C149.908 40.9397 150.185 40.729 150.374 40.4478C150.546 40.2103 150.657 39.935 150.699 39.6453C150.741 39.3556 150.712 39.06 150.615 38.7838C150.373 38.1014 149.91 37.5194 149.299 37.13C148.193 36.3416 146.987 36.316 145.679 37.0532C145.548 37.137 145.402 37.196 145.249 37.2273C145.17 37.2329 145.09 37.2226 145.014 37.1971C144.939 37.1716 144.869 37.1314 144.809 37.0788L143.232 35.9576C143.175 35.9197 143.126 35.8707 143.088 35.8135C143.05 35.7563 143.024 35.6921 143.012 35.6248C143 35.5551 143.002 35.4836 143.019 35.4149C143.035 35.3462 143.066 35.2816 143.109 35.2254C143.481 34.7487 143.965 34.3707 144.517 34.1246C145.145 33.8403 145.817 33.6671 146.504 33.6126C147.259 33.5495 148.02 33.61 148.757 33.7918C149.551 33.9833 150.3 34.3314 150.958 34.8158Z" fill="white"/>
</g>
<path d="M105.743 91.7553H87.552V47.6823C87.552 43.8544 89.0726 40.1832 91.7794 37.4764C94.4862 34.7697 98.1573 33.249 101.985 33.249H103.665C107.493 33.249 111.164 34.7697 113.871 37.4764C116.577 40.1832 118.098 43.8544 118.098 47.6823V79.4263C118.091 82.6985 116.787 85.8344 114.47 88.1457C112.154 90.4571 109.016 91.7553 105.743 91.7553Z" fill="#263238"/>
<path d="M85.7805 197.857C85.4587 199.683 85.2875 201.532 85.2685 203.387C85.2019 206.745 84.5875 207.938 84.5056 210.693C84.4083 213.842 84.9562 215.019 86.231 216.791C87.5059 218.562 90.839 220.165 92.2829 217.175C93.7267 214.185 93.5168 212.224 93.0611 209.136C92.5952 205.941 92.5491 204.175 92.2624 201.743C92.0269 199.598 91.7504 197.964 91.7504 197.964L85.7805 197.857Z" fill="#263238"/>
<path d="M95.3138 175.549L84.2546 175.35C84.4185 182.733 85.591 190.93 85.7906 197.878C85.8316 199.183 85.7599 208.01 86.2514 210.678C86.9938 214.712 91.7759 214.164 92.0319 211.753C92.2879 209.341 91.7247 199.035 91.7401 197.97C91.694 193.526 93.7881 186.025 94.8684 178.048C94.9145 177.664 95.2626 175.933 95.3138 175.549Z" fill="#FFA8A7"/>
<path d="M109.522 192.113C109.522 192.113 109.087 191.877 109.01 192.343C108.903 192.896 108.739 194.038 108.498 194.949C108.181 196.214 107.914 198.298 108.104 199.332C108.293 200.366 110.7 201.687 112.261 202.168C114.186 202.762 115.941 203.807 117.381 205.215C118.917 206.669 122.261 208.041 124.549 208.026C127.237 208.026 129.111 207.13 129.997 205.691C130.883 204.252 129.188 204.078 126.116 202.107L123.735 200.571C118.866 197.391 117.079 195.692 115.712 192.512L109.522 192.113Z" fill="#263238"/>
<path d="M115.753 190.141C115.671 187.858 117.248 168.448 117.248 168.448L106.747 173.235C108.995 186.66 109.476 189.829 109.512 192.025C109.466 192.209 109.447 192.399 109.455 192.589C109.455 195.195 112.41 196.603 114.703 198.343C116.653 199.871 118.731 201.228 120.914 202.398C122.583 203.233 125.972 203.31 126.392 202.24C123.597 200.105 119.531 196.91 117.309 194.473C116.224 193.326 115.835 192.43 115.753 190.141Z" fill="#FFA8A7"/>
<path d="M88.7858 103.506C84.7512 112.358 84.7512 119.209 85.4219 130.509C86.0158 140.877 87.004 150.016 87.004 150.016C86.8504 151.854 84.2955 155.443 83.9627 163.574C83.6555 171.172 84.4747 180.833 84.4747 180.833C84.4747 180.833 90.2142 184.013 94.4587 180.803C94.4587 180.803 98.5547 161.249 99.7528 151.736C100.777 143.437 102.62 132.833 102.62 132.833L106.496 151.68C105.659 154.354 105.053 157.095 104.683 159.872C104.141 165.468 107.274 176.456 107.274 176.456C107.274 176.456 113.203 178.222 116.823 175.012C116.823 175.012 118.175 157.148 118.681 150.41C119.357 141.384 117.934 116.951 116.823 104.013L88.7858 103.506Z" fill="#455A64"/>
<path d="M102.63 132.818L104.223 118.615C104.223 118.615 111.36 117.662 114.596 114.621C113.67 116.07 112.436 117.297 110.982 118.216C109.528 119.134 107.89 119.722 106.184 119.936L103.88 133.15L106.496 151.68L102.63 132.818Z" fill="#263238"/>
<path d="M131.533 100.014C131.828 97.4221 131.958 94.8141 131.922 92.2059C131.763 89.9531 131.359 89.5844 128.21 85.5959C123.96 80.2046 120.33 75.356 116.49 70.538C113.746 67.0974 110.858 66.57 108.052 66.7236C106.086 66.8312 109.926 76.2878 111.857 81.8839L122.88 93.7521C123.221 94.2205 123.378 94.7984 123.32 95.3752L122.655 105.472L125.957 109.895C125.957 109.895 130.959 105.584 131.533 100.014Z" fill="#FFA8A7"/>
<path d="M97.4234 67.0311C95.2883 67.1796 91.4074 67.5431 91.4074 67.5431C89.1699 68.7924 88.6016 69.8215 88.1869 72.7911C88.0077 74.0608 89.0419 77.4349 89.9277 82.2324L91.6071 91.1258L91.4227 95.5392C90.5523 98.2324 88.5811 101.576 86.8403 106.506C95.3907 111.278 102.559 111.457 109.061 110.602C114.017 109.962 116.644 108.764 117.519 107.576C117.335 102.707 117.007 99.6967 116.905 94.6074C116.869 92.4724 116.997 90.3117 117.084 87.8541C120.407 85.12 120.448 80.5735 118.62 77.6141C114.406 70.7892 110.305 66.4935 107.592 66.7136L97.4234 67.0311Z" fill="#BA68C8"/>
<path opacity="0.6" d="M97.4234 67.0311C95.2883 67.1796 91.4074 67.5431 91.4074 67.5431C89.1699 68.7924 88.6016 69.8215 88.1869 72.7911C88.0077 74.0608 89.0419 77.4349 89.9277 82.2324L91.6071 91.1258L91.4227 95.5392C90.5523 98.2324 88.5811 101.576 86.8403 106.506C95.3907 111.278 102.559 111.457 109.061 110.602C114.017 109.962 116.644 108.764 117.519 107.576C117.335 102.707 117.007 99.6967 116.905 94.6074C116.869 92.4724 116.997 90.3117 117.084 87.8541C120.407 85.12 120.448 80.5735 118.62 77.6141C114.406 70.7892 110.305 66.4935 107.592 66.7136L97.4234 67.0311Z" fill="white"/>
<path opacity="0.1" d="M110.464 87.9203C110.464 87.9203 106.563 90.9514 102.103 89.3693C100.851 88.9747 99.7216 88.2636 98.8246 87.3047C97.9277 86.3459 97.2934 85.1718 96.9831 83.896C96.9831 83.896 96.5121 88.9904 102.129 90.7261C107.571 92.4003 110.464 87.9203 110.464 87.9203Z" fill="black"/>
<path d="M115.758 53.048C115.589 60.4413 113.198 62.264 111.99 62.776C110.781 63.288 108.467 62.9808 106.214 62.607V67.0717C106.214 67.0717 108.815 69.7955 108.621 71.8281C108.426 73.8608 104.525 74.0912 101.617 72.0995C100.012 70.9973 98.5606 69.6871 97.3005 68.2032C97.0585 67.9169 96.9261 67.554 96.9267 67.1792V56.7344C96.9267 56.7344 95.6928 58.04 93.5117 56.5449C93.0411 56.2446 92.6381 55.8496 92.3284 55.3851C92.0187 54.9206 91.809 54.3967 91.7127 53.8468C91.6164 53.2969 91.6355 52.7329 91.769 52.1908C91.9024 51.6487 92.1471 51.1403 92.4877 50.6979C93.44 49.5766 95.8566 49.4998 97.0138 51.2099C97.6691 52.4848 97.7562 53.7699 98.4883 53.2579C100.434 51.855 99.3894 48.6499 101.74 47.1139C102.511 46.7114 103.312 46.369 104.136 46.0899C108.329 44.6409 111.964 43.4224 112.84 40.5552C114.488 41.4973 115.963 44.3286 115.758 53.048Z" fill="#FFA8A7"/>
<path d="M107.489 59.6531C108.026 59.6531 108.462 59.2176 108.462 58.6803C108.462 58.1431 108.026 57.7075 107.489 57.7075C106.952 57.7075 106.516 58.1431 106.516 58.6803C106.516 59.2176 106.952 59.6531 107.489 59.6531Z" fill="#B16668"/>
<path d="M106.844 51.9271C106.844 52.1274 106.785 52.3233 106.674 52.4904C106.564 52.6575 106.407 52.7885 106.223 52.8673C106.039 52.9461 105.836 52.9691 105.638 52.9336C105.441 52.8981 105.259 52.8055 105.114 52.6674C104.969 52.5292 104.868 52.3516 104.822 52.1565C104.777 51.9613 104.79 51.7572 104.86 51.5694C104.93 51.3817 105.053 51.2185 105.215 51.1C105.376 50.9816 105.569 50.9132 105.769 50.9031C105.908 50.8962 106.046 50.9175 106.177 50.9659C106.307 51.0142 106.426 51.0886 106.526 51.1843C106.627 51.2801 106.707 51.3954 106.762 51.5231C106.816 51.6508 106.844 51.7882 106.844 51.9271Z" fill="#263238"/>
<path d="M114.601 52.0295C114.611 52.1548 114.597 52.2809 114.558 52.4005C114.519 52.52 114.457 52.6307 114.375 52.726C114.293 52.8213 114.193 52.8994 114.081 52.9556C113.968 53.0118 113.846 53.0451 113.72 53.0535C113.594 53.0652 113.466 53.0498 113.346 53.0084C113.226 52.967 113.116 52.9005 113.023 52.8134C112.931 52.7262 112.858 52.6204 112.81 52.5029C112.761 52.3854 112.738 52.2589 112.742 52.1319C112.729 52.0057 112.742 51.8782 112.78 51.757C112.818 51.6359 112.88 51.5238 112.962 51.4276C113.045 51.3313 113.147 51.253 113.261 51.1974C113.375 51.1417 113.499 51.11 113.626 51.104C113.752 51.0981 113.879 51.1181 113.998 51.1629C114.116 51.2076 114.225 51.2761 114.316 51.3642C114.407 51.4523 114.48 51.5581 114.529 51.6751C114.578 51.7922 114.602 51.918 114.601 52.0449V52.0295Z" fill="#263238"/>
<path d="M105.528 54.5588C104.645 54.5588 103.798 54.2083 103.173 53.5844C102.548 52.9604 102.196 52.1139 102.195 51.2308C102.195 48.9678 104.53 48.9678 105.528 48.9678C106.527 48.9678 108.856 48.9678 108.856 51.2308C108.855 52.113 108.504 52.9587 107.88 53.5826C107.256 54.2064 106.41 54.5575 105.528 54.5588ZM105.528 49.49C103.48 49.49 102.722 50.002 102.722 51.2308C102.722 51.9777 103.019 52.6939 103.547 53.222C104.075 53.7501 104.792 54.0468 105.538 54.0468C106.285 54.0468 107.002 53.7501 107.53 53.222C108.058 52.6939 108.354 51.9777 108.354 51.2308C108.334 49.9764 107.545 49.49 105.528 49.49Z" fill="#455A64"/>
<path d="M113.982 54.5588C113.098 54.5588 112.251 54.2083 111.626 53.5844C111.002 52.9604 110.65 52.1139 110.648 51.2308C110.648 48.9678 112.983 48.9678 113.982 48.9678C114.98 48.9678 117.31 48.9678 117.31 51.2308C117.308 52.113 116.957 52.9587 116.333 53.5826C115.709 54.2064 114.864 54.5575 113.982 54.5588ZM113.982 49.49C111.964 49.49 111.176 50.002 111.176 51.2308C111.176 51.9777 111.472 52.6939 112.001 53.222C112.529 53.7501 113.245 54.0468 113.992 54.0468C114.739 54.0468 115.455 53.7501 115.983 53.222C116.511 52.6939 116.808 51.9777 116.808 51.2308C116.787 49.9764 115.999 49.49 113.982 49.49Z" fill="#455A64"/>
<path d="M109.373 50.1553L109.537 56.3761L112.809 55.3623L109.373 50.1553Z" fill="#F28F8F"/>
<path d="M106.209 62.6227C103.834 62.3104 98.944 60.9075 98.1812 58.9722C98.4882 59.9503 99.0866 60.8113 99.8964 61.44C101.356 62.6944 106.209 64.1024 106.209 64.1024V62.6227Z" fill="#F28F8F"/>
<path d="M106.327 47.1345L104.156 48.4606C103.985 48.1625 103.935 47.8101 104.017 47.4764C104.099 47.1426 104.307 46.8534 104.596 46.6686C104.74 46.5817 104.899 46.5247 105.065 46.5011C105.231 46.4775 105.4 46.4878 105.561 46.5314C105.723 46.5749 105.874 46.6508 106.006 46.7545C106.138 46.8581 106.247 46.9874 106.327 47.1345Z" fill="#263238"/>
<path d="M115.159 48.6092L112.742 47.7644C112.789 47.6042 112.868 47.4553 112.975 47.3269C113.081 47.1984 113.213 47.093 113.361 47.0172C113.51 46.9415 113.673 46.8969 113.839 46.8863C114.006 46.8756 114.173 46.8992 114.33 46.9554C114.654 47.0719 114.921 47.3086 115.075 47.6165C115.229 47.9243 115.26 48.2798 115.159 48.6092Z" fill="#263238"/>
<path d="M108.595 51.497C108.56 51.497 108.526 51.4901 108.494 51.4766C108.462 51.4632 108.433 51.4435 108.409 51.4187C108.384 51.3939 108.365 51.3645 108.352 51.3322C108.34 51.3 108.333 51.2655 108.334 51.2307C108.334 50.8058 109.174 50.5293 109.931 50.5293C110.689 50.5293 111.176 50.8058 111.176 51.2307C111.16 51.2864 111.126 51.3353 111.08 51.3702C111.034 51.405 110.977 51.4238 110.92 51.4238C110.862 51.4238 110.805 51.405 110.759 51.3702C110.713 51.3353 110.68 51.2864 110.664 51.2307C110.664 51.1795 110.403 51.0515 109.947 51.0515C109.58 51.0437 109.215 51.1063 108.872 51.2359C108.872 51.2715 108.864 51.3067 108.85 51.3395C108.836 51.3722 108.816 51.4017 108.79 51.4261C108.764 51.4506 108.733 51.4695 108.7 51.4817C108.666 51.4939 108.631 51.4991 108.595 51.497Z" fill="#455A64"/>
<path d="M102.467 51.2714H102.436L96.5837 50.7594C96.3102 50.4884 95.9845 50.2758 95.6262 50.1348L102.497 50.7696C102.566 50.7786 102.629 50.8142 102.672 50.8687C102.715 50.9232 102.735 50.9924 102.728 51.0615C102.716 51.1215 102.683 51.1755 102.635 51.2138C102.587 51.2522 102.528 51.2726 102.467 51.2714Z" fill="#455A64"/>
<path d="M78.4385 57.3746C80.3533 54.8146 81.6589 52.8843 83.4049 50.7186C84.3981 49.4744 85.033 48.5835 85.9649 47.3087C86.6202 46.428 86.9889 45.6856 87.7364 45.4143C88.544 45.0833 89.2718 44.5842 89.8714 43.9499C90.24 43.5422 90.582 43.1112 90.8954 42.6597C91.9928 41.1826 93.2963 39.8705 94.7661 38.7634C96.3021 37.6063 98.0174 36.7154 99.5994 35.6146C100.542 34.9541 101.55 33.8584 100.403 32.8344C100.052 32.5382 99.6306 32.3357 99.1796 32.2456C96.3892 31.6415 93.9623 32.5989 91.2334 33.2952C90.048 33.5911 88.8887 33.9832 87.7671 34.4677C87.2154 34.6859 86.6981 34.9825 86.2311 35.3483C85.5782 36.0066 85.0431 36.7721 84.649 37.6114C83.4561 39.7413 80.8961 41.6459 79.1041 43.3304C77.01 45.3016 75.1361 47.109 72.745 49.2799C70.5946 51.2408 68.4903 53.0431 66.5191 55.1832C64.8858 56.9496 65.4951 58.332 65.7102 58.8133C67.0414 61.5474 68.5313 62.5304 70.3182 64.2251C73.3902 67.1589 84.0142 75.6018 87.5316 78.3922C88.2873 78.9858 88.8808 79.7607 89.257 80.645L89.9329 82.2066C93.9469 82.9439 96.6247 76.9176 93.3018 69.6626C92.7516 68.4894 91.9109 67.4761 90.8596 66.7186C86.6612 63.6619 78.4385 57.3746 78.4385 57.3746Z" fill="#FFA8A7"/>
<path d="M78.4384 57.3745C77.1608 58.9462 75.4581 60.1175 73.5334 60.7486C73.5334 60.7486 76.0935 61.404 79.6007 58.2552L78.4384 57.3745Z" fill="#F28F8F"/>
<path d="M130.488 94.6738L129.833 94.1106C129.735 94.0461 129.623 94.0055 129.507 93.9922C129.39 93.9788 129.272 93.9931 129.162 94.0338L122.05 95.9691C121.692 96.0886 121.364 96.284 121.088 96.542C120.813 96.8001 120.596 97.1146 120.453 97.4642L115.333 112.225C115.271 112.345 115.247 112.481 115.264 112.616C115.28 112.75 115.336 112.876 115.425 112.978L116.101 113.561C116.199 113.629 116.313 113.672 116.431 113.686C116.55 113.701 116.67 113.686 116.782 113.643L123.904 111.708C124.262 111.589 124.59 111.393 124.866 111.135C125.142 110.877 125.358 110.563 125.501 110.213C126.525 107.31 129.597 98.3551 130.621 95.452C130.744 95.0885 130.683 94.812 130.488 94.6738Z" fill="#455A64"/>
<path d="M116.004 112.793L121.124 98.0322C121.266 97.6829 121.483 97.3687 121.758 97.1114C122.034 96.8542 122.363 96.66 122.721 96.5423L129.828 94.6069C130.488 94.4277 130.852 94.8066 130.616 95.4517C129.592 98.3548 126.52 107.31 125.496 110.213C125.353 110.562 125.137 110.877 124.861 111.135C124.585 111.393 124.257 111.588 123.899 111.708L116.792 113.664C116.137 113.817 115.784 113.438 116.004 112.793Z" fill="#BA68C8"/>
<path d="M121.948 96.952C121.579 97.232 121.292 97.6071 121.119 98.0374L115.999 112.793C115.94 112.91 115.916 113.042 115.928 113.172C115.941 113.303 115.99 113.427 116.07 113.531L115.436 112.988C115.345 112.887 115.287 112.761 115.269 112.627C115.252 112.492 115.276 112.356 115.338 112.235L120.458 97.4742C120.62 97.0729 120.883 96.7202 121.221 96.4502L121.948 96.952Z" fill="#37474F"/>
<path d="M128.538 101.401C128.026 102.901 126.249 103.905 123.31 104.601C120.371 105.298 118.748 108.416 119.214 109.363C119.68 110.31 124.431 111.196 126.331 110.924C128.23 110.653 130.135 107.909 130.714 107.059C131.292 106.209 131.958 100.28 131.348 99.4659C130.739 98.6518 129.454 98.7798 129.454 98.7798L128.538 101.401Z" fill="#F28F8F"/>
</svg>
