<svg width="296" height="296" viewBox="0 0 296 296" fill="none" xmlns="http://www.w3.org/2000/svg">
<path d="M149.735 286.167C227.131 286.167 289.873 252.368 289.873 210.675C289.873 168.982 227.131 135.183 149.735 135.183C72.3385 135.183 9.59644 168.982 9.59644 210.675C9.59644 252.368 72.3385 286.167 149.735 286.167Z" fill="#F0F0F0"/>
<path d="M149.291 239.31C171.111 239.31 188.801 229.098 188.801 216.5C188.801 203.903 171.111 193.69 149.291 193.69C127.47 193.69 109.781 203.903 109.781 216.5C109.781 229.098 127.47 239.31 149.291 239.31Z" fill="#E0E0E0"/>
<path d="M71.4485 251.428C95.4142 251.428 114.842 240.211 114.842 226.375C114.842 212.538 95.4142 201.321 71.4485 201.321C47.4829 201.321 28.0549 212.538 28.0549 226.375C28.0549 240.211 47.4829 251.428 71.4485 251.428Z" fill="#E0E0E0"/>
<path d="M222.586 253.707C246.552 253.707 265.98 242.491 265.98 228.654C265.98 214.817 246.552 203.601 222.586 203.601C198.621 203.601 179.193 214.817 179.193 228.654C179.193 242.491 198.621 253.707 222.586 253.707Z" fill="#E0E0E0"/>
<path d="M245.301 200.132C245.301 200.132 243.827 186.018 247.711 175.575C251.594 165.132 258.414 157.661 265.814 155.447C273.214 153.233 281.052 160.835 274.031 167.341C267.01 173.847 253.749 181.803 251.008 201.025L245.301 200.132Z" fill="#BA68C8"/>
<path opacity="0.15" d="M245.301 200.132C245.301 200.132 243.827 186.018 247.711 175.575C251.594 165.132 258.414 157.661 265.814 155.447C273.214 153.233 281.052 160.835 274.031 167.341C267.01 173.847 253.749 181.803 251.008 201.025L245.301 200.132Z" fill="black"/>
<path d="M246.793 196.982H246.704C246.591 196.966 246.489 196.906 246.421 196.815C246.352 196.724 246.322 196.61 246.337 196.497C249.392 174.178 262.878 161.746 269.579 158.295C269.68 158.243 269.798 158.234 269.906 158.269C269.96 158.286 270.01 158.314 270.052 158.35C270.095 158.387 270.131 158.431 270.156 158.481C270.182 158.531 270.197 158.586 270.202 158.642C270.206 158.698 270.2 158.755 270.183 158.809C270.165 158.862 270.138 158.912 270.101 158.955C270.065 158.998 270.02 159.033 269.97 159.059C263.404 162.439 250.197 174.646 247.19 196.615C247.176 196.713 247.129 196.803 247.057 196.869C246.985 196.936 246.891 196.976 246.793 196.982Z" fill="white"/>
<path d="M249.001 210.403C249.18 208.649 249.048 206.877 248.61 205.169C248.184 203.34 247.083 201.617 246.994 199.699C246.923 198.172 247.876 196.443 248.96 195.413C250.043 194.383 251.553 193.602 252.304 192.258C253.056 190.914 252.896 189.185 253.269 187.652C253.674 185.948 254.725 184.468 256.201 183.526C257.678 182.583 259.463 182.252 261.179 182.602C262.777 182.934 264.186 183.822 265.648 184.544C267.088 185.348 268.747 185.671 270.384 185.468C272.179 185.123 273.998 184.925 275.825 184.876C278.933 184.876 282.84 185.935 283.905 189.221C284.21 190.025 284.239 190.908 283.988 191.731L283.953 191.832C283.053 194.057 280.217 194.513 278.394 195.603C277.897 195.905 277.062 196.325 276.872 196.929C276.683 197.533 277.204 198.361 277.464 198.918C278.127 200.356 279.087 201.742 279.175 203.37C279.294 205.696 277.352 207.934 275.392 208.923C273.466 209.796 271.35 210.164 269.242 209.994C268.2 209.947 267.063 209.858 266.205 210.456C265.854 210.747 265.568 211.108 265.365 211.516C265.161 211.923 265.044 212.369 265.021 212.824C264.908 213.724 264.991 214.641 264.908 215.547C264.726 216.974 264.163 218.325 263.28 219.46C262.397 220.595 261.226 221.472 259.888 222C257.65 222.849 255.173 222.82 252.956 221.917C251.132 221.201 249.569 219.01 249.214 217.104C248.843 214.89 248.771 212.636 249.001 210.403Z" fill="#BA68C8"/>
<path d="M249.753 215.719H249.723C249.679 215.712 249.636 215.697 249.597 215.674C249.558 215.651 249.524 215.62 249.497 215.584C249.47 215.547 249.451 215.506 249.44 215.462C249.429 215.418 249.427 215.373 249.433 215.328C252.441 193.862 273.983 188.185 279.152 187.93C279.242 187.927 279.331 187.959 279.398 188.02C279.466 188.081 279.507 188.165 279.513 188.256C279.516 188.301 279.51 188.347 279.495 188.39C279.48 188.433 279.457 188.472 279.427 188.506C279.396 188.54 279.359 188.567 279.318 188.586C279.277 188.605 279.233 188.616 279.187 188.617C274.126 188.866 253.056 194.419 250.114 215.423C250.104 215.509 250.06 215.588 249.993 215.643C249.926 215.699 249.84 215.726 249.753 215.719Z" fill="white"/>
<path d="M272.811 202.215C272.74 202.212 272.672 202.188 272.616 202.144C272.557 202.097 266.299 197.266 257.194 199.776C257.151 199.789 257.106 199.793 257.061 199.787C257.017 199.782 256.974 199.768 256.934 199.746C256.895 199.724 256.861 199.695 256.833 199.659C256.806 199.624 256.786 199.583 256.774 199.539C256.75 199.451 256.763 199.356 256.808 199.277C256.853 199.197 256.928 199.138 257.017 199.113C259.709 198.327 262.541 198.143 265.312 198.576C268.083 199.009 270.724 200.047 273.048 201.617C273.119 201.675 273.164 201.758 273.174 201.849C273.184 201.94 273.158 202.031 273.101 202.103C273.066 202.143 273.021 202.175 272.97 202.194C272.92 202.214 272.865 202.221 272.811 202.215Z" fill="white"/>
<path d="M47.6856 193.614C48.6387 188.209 48.4789 178.885 44.477 169.004C40.1968 158.431 33.6079 150.8 26.9715 151.836C20.7851 152.801 20.8917 161.024 28.4871 171.088C33.8151 178.145 38.9714 186.865 40.5402 196.183L43.8376 208.384L47.6856 193.614Z" fill="#BA68C8"/>
<path d="M47.6856 193.614C48.6387 188.209 48.4789 178.885 44.477 169.004C40.1968 158.431 33.6079 150.8 26.9715 151.836C20.7851 152.801 20.8917 161.024 28.4871 171.088C33.8151 178.145 38.9714 186.865 40.5402 196.183L43.8376 208.384L47.6856 193.614Z" fill="#BA68C8"/>
<g opacity="0.15">
<path d="M47.6856 193.614C48.6387 188.209 48.4789 178.885 44.477 169.004C40.1968 158.431 33.6079 150.8 26.9715 151.836C20.7851 152.801 20.8917 161.024 28.4871 171.088C33.8151 178.145 38.9714 186.865 40.5402 196.183L43.8376 208.384L47.6856 193.614Z" fill="black"/>
</g>
<path d="M46.0932 197.509C46.0162 197.489 45.9472 197.446 45.8954 197.385C45.8436 197.325 45.8114 197.25 45.8031 197.171C44.2994 181.104 37.0652 163.392 29.0081 155.897C28.9692 155.862 28.9375 155.821 28.9148 155.774C28.8922 155.727 28.8789 155.676 28.8759 155.624C28.8729 155.572 28.8801 155.52 28.8972 155.471C28.9143 155.422 28.9409 155.377 28.9755 155.338C29.0101 155.299 29.052 155.267 29.0988 155.244C29.1457 155.222 29.1965 155.209 29.2485 155.206C29.3004 155.202 29.3525 155.21 29.4016 155.227C29.4508 155.244 29.4961 155.27 29.5349 155.305C37.746 162.883 45.0809 180.838 46.6023 197.071C46.6122 197.173 46.581 197.276 46.5156 197.356C46.4501 197.436 46.3557 197.486 46.253 197.497C46.2006 197.509 46.1468 197.513 46.0932 197.509Z" fill="white"/>
<path d="M45.1282 211.196C41.7374 213.403 37.8255 214.679 33.7854 214.896C26.7998 215.381 24.0529 211.824 24.0529 211.824C24.0529 211.824 27.3326 205.602 31.3997 204.128C31.3997 204.128 24.6509 204.891 19.015 207.976C19.015 207.976 14.8059 207.674 13.687 201.102C13.687 201.102 16.5227 197.462 25.0653 196.106C25.0653 196.106 20.0925 194.383 12.5977 195.609C12.0057 195.774 10.4133 187.267 10.0403 183.378C9.66735 179.489 11.2243 179.66 14.2613 179.127C17.2982 178.595 27.528 178.985 29.2507 180.791C30.9734 182.597 31.4293 188.297 31.4293 188.297C31.4293 188.297 33.6434 184.497 33.2053 181.045C35.9317 180.98 38.637 181.539 41.1144 182.679C41.8544 183.023 42.251 188.741 40.0666 193.099C42.3535 190.824 44.0065 187.992 44.8618 184.882C48.9347 187.93 49.8937 191.553 50.1898 194.798C50.5213 198.622 49.9411 206.608 45.1282 211.196Z" fill="#BA68C8"/>
<path d="M45.0927 211.581C45.0201 211.576 44.9506 211.549 44.8927 211.505C44.8349 211.461 44.7912 211.401 44.7671 211.332C40.2206 199.297 20.7378 184.059 13.4622 181.969C13.4127 181.955 13.3666 181.931 13.3265 181.899C13.2863 181.866 13.2529 181.827 13.2281 181.782C13.2034 181.736 13.1878 181.687 13.1822 181.636C13.1767 181.585 13.1813 181.533 13.1958 181.483C13.226 181.386 13.2927 181.304 13.382 181.254C13.4714 181.204 13.5764 181.191 13.6753 181.217C21.0694 183.348 40.8777 198.829 45.4953 211.06C45.5298 211.156 45.5249 211.263 45.4817 211.356C45.4385 211.449 45.3605 211.521 45.2644 211.557C45.2102 211.58 45.151 211.588 45.0927 211.581Z" fill="white"/>
<path d="M114.682 90.576L90.2978 79.7543L89.7058 66.4343C94.4418 66.1501 95.9396 67.1802 98.0708 68.5004C101.191 70.4244 111.924 75.9477 116.979 78.3216L122.728 62.3376C124.383 62.124 126.009 61.7269 127.576 61.1536C129.281 60.384 131.181 61.3904 131.181 61.3904C131.181 61.3904 126.096 86.0176 124.178 90.576C123.083 93.1631 118.885 92.4112 114.682 90.576Z" fill="#FFA8A7"/>
<path d="M89.7117 66.4047C89.7117 66.4047 92.873 65.4398 97.1472 67.5887C101.421 69.7377 111.13 75.0065 111.13 75.0065C111.13 75.0065 108.17 83.0991 104.695 87.4089L92.429 82.1756L89.7117 66.4047Z" fill="#455A64"/>
<path d="M127.913 171.544C128.061 164.404 129.459 159.491 129.624 157.514C129.624 157.514 129.097 115.061 129.097 108.176L165.292 106.702C165.292 106.702 164.108 151.25 164.108 157.146C164.108 163.043 160.355 192.666 159.248 204.323C157.152 207.058 154.701 207.247 151.41 204.572C151.41 204.572 151.138 202.944 150.711 197.568C150.214 191.417 149.231 177.097 149.172 171.07C149.101 163.647 149.042 160.373 149.255 156.797C149.51 152.706 148.527 125.107 148.527 125.107C148.527 125.107 143.992 151.434 142.861 160.373C141.571 170.62 137.427 200.629 137.415 206.863C137.415 207.981 137.415 209.278 137.415 210.681C137.415 214.055 137.32 214.949 137.859 216.258C138.806 218.543 130.714 219.975 130.341 218.353L129.47 211.646V211.451V207.2C129.506 200.836 127.7 181.892 127.913 171.544Z" fill="#B16668"/>
<path d="M175.232 215.228C175.451 215.885 175.411 216.6 175.12 217.229C174.841 217.821 171.787 219.537 167.666 219.259C164.613 219.051 161.672 218.029 159.147 216.299C157.573 215.257 155.939 215.062 153.902 214.949C151.866 214.837 149.166 213.813 148.734 212.86C148.302 211.906 148.799 210.261 148.799 210.261L175.232 215.228Z" fill="#263238"/>
<path d="M158.621 202.375L158.946 202.304C159.124 202.256 159.309 202.246 159.491 202.275C159.691 202.336 159.868 202.456 160 202.618C160.404 203.133 160.757 203.686 161.054 204.27C161.918 205.679 163.73 206.845 165.707 207.91C167.057 208.633 168.377 209.195 169.762 209.823C171.147 210.45 173.059 210.847 174.172 211.599C175.789 212.688 175.996 215.429 174.172 216.512C172.586 217.442 168.4 218.454 164.02 217.211C161.652 216.536 158.976 213.984 155.844 213.736C153.849 213.582 150.078 213.019 148.793 211.504C148.32 210.835 148.953 208.704 149.474 206.868C150.066 204.862 150.469 201.712 151.132 201.89C151.153 202.251 151.193 202.61 151.25 202.967C151.321 203.275 151.653 203.559 151.842 203.796L152.612 204.684C152.922 205.096 153.31 205.442 153.754 205.702C154.542 206.105 155.483 205.933 156.347 205.75C156.389 205.75 155.992 204.175 155.951 204.021C155.909 203.899 155.899 203.769 155.921 203.642C155.973 203.519 156.064 203.417 156.182 203.352C156.917 202.859 157.748 202.526 158.621 202.375Z" fill="#455A64"/>
<path d="M145.744 226.902C145.987 227.133 145.916 228.678 145.644 229.122C145.372 229.566 143.702 230.987 140.707 231.206C137.841 231.407 135.284 231.022 133.603 229.957C131.921 228.891 131.11 227.713 130.95 226.079C130.791 224.445 130.95 222.876 130.199 221.621C129.482 220.437 128.334 219.158 128.085 218.525C127.546 217.163 128.085 215.204 128.085 215.204L145.744 226.902Z" fill="#263238"/>
<path d="M137.936 212.664C137.96 213.282 138.072 213.894 138.268 214.481C138.713 215.744 139.309 216.949 140.044 218.069C140.4 218.657 140.795 219.221 141.228 219.756C142.092 220.786 143.169 221.627 144.087 222.616C145.068 223.547 145.695 224.79 145.863 226.132C145.987 228.376 143.548 229.139 141.672 229.477C139.642 229.831 137.558 229.726 135.574 229.169C134.532 228.896 133.591 228.329 132.864 227.535C132.136 226.742 131.653 225.755 131.471 224.693C131.365 224.072 131.406 223.432 131.329 222.805C131.083 221.372 130.483 220.022 129.583 218.88C129.062 218.215 128.614 217.497 128.245 216.737C127.653 215.352 128.127 213.777 128.505 212.404C128.825 211.22 129.192 209.852 129.613 209.965C129.613 210.586 129.613 210.651 130.057 211.072C130.649 211.604 130.649 212.404 131.241 212.848C131.048 212.33 130.909 211.795 130.826 211.249C130.789 211.03 130.833 210.805 130.95 210.616C131.149 210.44 131.386 210.315 131.643 210.249C132.527 209.948 133.439 209.739 134.366 209.627C135.248 209.479 136.148 209.479 137.03 209.627C137.291 209.673 137.528 209.809 137.699 210.012C137.854 210.239 137.936 210.507 137.936 210.781C137.936 211.143 137.889 212.072 137.936 212.664Z" fill="#455A64"/>
<path d="M140.304 218.543C139.469 217.915 137.598 217.903 136.574 218.016C135.532 218.104 134.529 218.456 133.662 219.04C133.533 219.13 133.376 219.172 133.22 219.159C133.063 219.146 132.916 219.079 132.803 218.969C132.737 218.906 132.686 218.829 132.653 218.744C132.62 218.659 132.606 218.568 132.613 218.477C132.619 218.386 132.645 218.298 132.689 218.218C132.733 218.138 132.795 218.069 132.868 218.016C133.826 217.32 134.961 216.91 136.142 216.832C138.664 216.654 139.404 217.086 139.404 217.086C139.404 217.086 140.541 217.797 140.304 218.543Z" fill="#F5F5F5"/>
<path d="M142.216 220.816C141.168 220.194 139.102 220.283 138.072 220.396C137.05 220.498 136.074 220.87 135.242 221.473C135.115 221.566 134.959 221.611 134.801 221.599C134.644 221.587 134.496 221.519 134.384 221.408C134.319 221.345 134.269 221.268 134.236 221.183C134.204 221.098 134.19 221.007 134.197 220.916C134.203 220.826 134.229 220.738 134.272 220.658C134.316 220.578 134.376 220.509 134.449 220.455C135.421 219.716 136.579 219.263 137.794 219.147C140.316 218.969 140.973 219.484 140.973 219.484C141.268 219.597 141.533 219.775 141.749 220.006C141.964 220.237 142.124 220.514 142.216 220.816Z" fill="#F5F5F5"/>
<path d="M135.13 214.387C136.191 214.203 137.282 214.295 138.297 214.653C138.741 214.902 139.031 215.606 138.747 215.784C137.859 215.423 136.894 215.291 135.941 215.399C134.995 215.49 134.072 215.743 133.212 216.145C132.999 216.24 132.738 216.376 132.519 216.5C132.448 216.541 132.37 216.566 132.289 216.575C132.208 216.584 132.126 216.576 132.048 216.551C131.97 216.527 131.898 216.486 131.837 216.433C131.775 216.379 131.725 216.314 131.69 216.24C131.63 216.115 131.619 215.972 131.659 215.839C131.7 215.706 131.789 215.593 131.909 215.524C132.889 214.918 133.987 214.53 135.13 214.387Z" fill="#F5F5F5"/>
<path d="M163.848 206.827C163.705 206.552 163.495 206.317 163.237 206.145C162.979 205.972 162.683 205.867 162.374 205.838C161.468 205.673 159.864 206.342 158.869 207.159C158.774 207.235 158.7 207.334 158.652 207.446C158.604 207.559 158.585 207.681 158.596 207.803C158.606 207.924 158.646 208.041 158.713 208.144C158.779 208.246 158.869 208.331 158.976 208.39C159.11 208.465 159.264 208.496 159.417 208.479C159.57 208.462 159.714 208.398 159.828 208.295C160.925 207.3 162.368 206.773 163.848 206.827Z" fill="#F5F5F5"/>
<path d="M166.66 208.384C166.462 208.105 166.2 207.877 165.896 207.721C165.593 207.564 165.255 207.483 164.913 207.484C164.913 207.484 162.545 207.555 161.077 208.917C160.988 208.992 160.919 209.087 160.874 209.195C160.83 209.302 160.812 209.419 160.821 209.535C160.831 209.651 160.869 209.763 160.931 209.861C160.993 209.96 161.078 210.042 161.178 210.101C161.307 210.173 161.455 210.202 161.602 210.185C161.748 210.168 161.886 210.105 161.995 210.006C162.601 209.403 163.335 208.944 164.143 208.664C164.95 208.383 165.81 208.287 166.66 208.384Z" fill="#F5F5F5"/>
<path d="M169.762 209.822C169.537 209.563 169.259 209.356 168.946 209.215C168.633 209.074 168.294 209.002 167.951 209.005C166.604 209.087 165.319 209.595 164.28 210.456C164.191 210.531 164.122 210.626 164.077 210.734C164.033 210.841 164.014 210.958 164.024 211.074C164.034 211.19 164.072 211.302 164.134 211.4C164.196 211.499 164.28 211.581 164.381 211.64C164.51 211.712 164.658 211.741 164.804 211.724C164.951 211.707 165.089 211.645 165.198 211.545C165.771 210.921 166.483 210.441 167.275 210.142C168.068 209.842 168.92 209.733 169.762 209.822Z" fill="#F5F5F5"/>
<path d="M143.436 162.362L147.059 138.368L148.592 157.644C148.716 159.218 148.314 165.056 148.414 169.874C148.515 174.693 150.611 196.372 150.611 196.372C150.611 196.372 154.713 199.178 160.171 196.372C160.319 195.928 163.226 171.26 163.487 168.093C163.812 164.174 164.381 160.627 164.511 157.289C164.641 153.95 164.878 147.047 164.825 141.778C164.771 136.509 165.275 106.702 165.275 106.702L128.357 106.815L127.896 156.803C127.671 157.922 126.41 168.412 126.741 173.663C127.073 178.914 129.299 203.322 129.299 203.322C129.299 203.322 132.626 205.448 137.634 203.322C137.634 203.322 140.736 178.458 141.63 173.77C142.524 169.081 143.116 164.47 143.436 162.362Z" fill="#37474F"/>
<path d="M147.059 138.368L148.178 128.192C151.727 127.795 155.129 126.548 158.094 124.557C158.094 124.557 157.502 125.859 154.406 127.89C153.153 128.706 151.778 129.318 150.333 129.701L149.184 137.8L148.592 157.289L147.059 138.368Z" fill="#263238"/>
<path d="M156.584 54.748C161.367 54.748 163.516 55.6538 165.849 58.4954C168.181 61.337 179.269 76.2554 179.269 76.2554C179.269 76.2554 187.108 68.8021 191.109 65.0962C193.608 62.5269 196.059 60.0109 198.74 59.2413C201.54 58.4362 200.143 63.6458 201.256 64.072L197.947 68.8909C197.947 68.8909 185.734 85.1472 181.466 87.6692C179.986 88.5453 178.423 90.4279 174.297 87.0772C168.88 82.6668 159.053 71.5964 159.053 71.5964L156.584 54.748Z" fill="#B16668"/>
<path d="M154.642 54.7422C159.059 53.9963 161.859 53.718 165.849 57.9153C169.839 62.1126 177.559 73.9585 177.559 73.9585C177.559 73.9585 177.103 80.0383 169.271 82.4182L157.164 73.9585L154.642 54.7422Z" fill="#455A64"/>
<path d="M127.913 111.888C132.88 115.505 155.4 119.513 165.849 111.888C165.849 111.888 165.606 82.6964 164.789 67.2452C164.748 66.5466 164.7 65.8658 164.629 65.2028C164.629 64.9838 164.576 64.7647 164.552 64.5457C164.437 63.6234 164.261 62.7097 164.025 61.8106C163.984 61.6626 163.937 61.5146 163.889 61.3666C163.793 61.0328 163.679 60.7047 163.546 60.3839C163.481 60.2122 163.41 60.0406 163.333 59.8748C163.264 59.7168 163.187 59.5627 163.102 59.413C163.093 59.3844 163.081 59.3567 163.066 59.3302C162.989 59.1822 162.901 59.0342 162.818 58.8921C162.735 58.75 162.628 58.5842 162.516 58.4244C162.403 58.2646 162.315 58.1343 162.214 58.0041C162.113 57.8738 161.971 57.7081 161.841 57.566C161.72 57.4266 161.592 57.2942 161.456 57.1694L161.184 56.9148C161.098 56.8316 161.008 56.7544 160.911 56.6839C160.793 56.5833 160.663 56.4886 160.538 56.3998C160.13 56.1139 159.698 55.8624 159.248 55.6479C159.121 55.5816 158.991 55.5223 158.857 55.4703C158.828 55.4703 158.786 55.4703 158.768 55.4289L158.301 55.2513C158.033 55.1483 157.761 55.0594 157.484 54.9849C157.206 54.9079 156.892 54.8369 156.614 54.7658C156.335 54.6948 155.903 54.7658 155.501 54.7658H154.672C154.382 54.7658 154.08 54.7658 153.784 54.7658C149.877 54.9375 145.75 54.1738 141.251 54.7185C140.955 54.7599 131.542 55.8137 129.37 56.601C127.345 57.341 125.522 60.9404 125.072 62.9354C123.728 68.8081 129.648 87.8764 129.648 87.8764L127.913 111.888Z" fill="#BA68C8"/>
<path d="M139.931 55.8197C139.718 56.5479 141.115 58.7383 143.371 59.7506C145.626 60.7629 148.947 61.2306 151.067 60.5024C153.186 59.7743 155.743 57.134 153.512 54.7837C149.681 54.908 145.638 54.1917 141.239 54.7304C141.222 54.7245 140.15 55.0916 139.931 55.8197Z" fill="#455A64"/>
<path opacity="0.3" d="M164.896 69.489C161.107 70.8092 154.885 71.857 147.059 72.3129C139.844 72.6711 132.612 72.2743 125.48 71.1289C126.339 76.1135 127.848 81.7849 128.808 85.0823C142.489 87.8706 158.141 85.6743 165.369 83.3833C165.239 78.3157 165.097 73.6212 164.896 69.489Z" fill="black"/>
<path d="M141.02 34.2175L139.635 35.7331L138.925 27.9068C138.363 27.8414 137.794 27.9049 137.26 28.0927C136.727 28.2804 136.243 28.5874 135.846 28.9902C134.526 30.3399 135.254 34.5727 136.912 38.7167C136.912 38.7167 138.516 46.2588 139.161 47.4961C139.588 48.2621 140.294 48.8329 141.133 49.0886L141.02 34.2175Z" fill="#263238"/>
<path d="M140.843 39.0721C140.251 39.4332 139.369 38.267 138.623 37.4855C137.877 36.7041 135.432 35.6326 134.212 38.1959C132.993 40.7593 135.29 44.2698 137.214 44.8737C140.523 45.9156 141.02 43.7903 141.02 43.7903L141.245 55.9737C144.715 62.2489 156.454 59.0343 152.055 54.8726V51.7764C153.719 51.8977 155.389 51.8977 157.052 51.7764C159.491 51.4034 160.491 49.7162 161.231 47.0759C162.415 42.8431 162.865 39.4214 161.859 31.0919C160.758 21.9633 150.137 21.8686 144.401 25.4738C138.664 29.0791 140.843 39.0721 140.843 39.0721Z" fill="#B16668"/>
<path d="M139.422 22.9163C141.433 22.0569 143.534 21.4235 145.685 21.0278C150.321 20.0214 155.039 19.0979 159.266 16.9608C159.758 16.6399 160.335 16.4729 160.923 16.4813C162.042 16.6293 162.528 17.979 162.575 19.1038C162.617 20.1473 162.48 21.1903 162.172 22.1881C162.51 21.8664 162.961 21.6904 163.427 21.6982C163.893 21.7059 164.338 21.8968 164.665 22.2296C164.974 22.5796 165.2 22.9957 165.324 23.4461C165.448 23.8965 165.468 24.3693 165.381 24.8285C165.109 26.9005 163.522 28.6291 161.646 29.5645C159.719 30.4025 157.636 30.8183 155.536 30.784C152.614 30.8627 149.691 30.6345 146.816 30.1032C146.125 29.9315 145.411 29.8795 144.703 29.9493C144.349 29.9906 144.014 30.1301 143.736 30.3519C143.458 30.5737 143.247 30.869 143.128 31.2043C142.82 32.3587 142.5 40.1968 140.896 40.256C140.6 40.256 139.457 38.2846 138.711 37.5801C137.776 36.6981 136.835 29.9789 136.669 28.7357C136.648 28.6393 136.603 28.5498 136.539 28.4752C135.485 26.9952 136.722 24.5088 138.025 23.6977C138.475 23.4098 138.941 23.1489 139.422 22.9163Z" fill="#263238"/>
<path d="M137.113 28.552C136.925 28.7728 136.695 28.9544 136.437 29.0864C136.179 29.2184 135.897 29.2982 135.608 29.3213C135.318 29.3444 135.028 29.3103 134.752 29.221C134.476 29.1316 134.22 28.9888 133.999 28.8007C133.778 28.6126 133.597 28.3828 133.465 28.1245C133.333 27.8662 133.253 27.5844 133.23 27.2952C133.207 27.0061 133.241 26.7152 133.33 26.4392C133.42 26.1632 133.562 25.9076 133.751 25.6868L137.113 28.552Z" fill="#263238"/>
<path d="M152.043 51.7703C152.043 51.7703 146.603 51.2494 144.703 50.2371C143.587 49.6546 142.673 48.7488 142.08 47.6382C142.366 48.7504 142.873 49.7934 143.572 50.7047C144.963 52.4807 152.049 53.4457 152.049 53.4457L152.043 51.7703Z" fill="#9A4A4D"/>
<path d="M150.368 37.7045C150.359 37.9177 150.287 38.1234 150.162 38.2962C150.037 38.469 149.863 38.6012 149.664 38.6765C149.464 38.7517 149.247 38.7666 149.039 38.7194C148.831 38.6722 148.641 38.5649 148.493 38.4108C148.346 38.2568 148.246 38.0627 148.208 37.8528C148.17 37.6429 148.194 37.4264 148.278 37.2301C148.361 37.0338 148.501 36.8664 148.679 36.7487C148.857 36.6309 149.065 36.5681 149.279 36.5679C149.425 36.5709 149.569 36.6028 149.703 36.6616C149.837 36.7204 149.958 36.805 150.059 36.9105C150.16 37.0161 150.239 37.1405 150.292 37.2768C150.345 37.413 150.371 37.5583 150.368 37.7045Z" fill="#263238"/>
<path d="M149.225 33.59L146.893 34.8746C146.726 34.5553 146.69 34.1838 146.791 33.8382C146.893 33.4926 147.125 33.1999 147.438 33.0216C147.592 32.9382 147.761 32.8868 147.935 32.8703C148.11 32.8538 148.285 32.8726 148.452 32.9257C148.619 32.9788 148.774 33.0649 148.907 33.1791C149.039 33.2932 149.148 33.433 149.225 33.59Z" fill="#263238"/>
<path d="M150.871 45.2346L153.92 46.3713C153.852 46.5742 153.743 46.7614 153.601 46.9217C153.459 47.082 153.287 47.2121 153.093 47.3043C152.9 47.3965 152.69 47.4489 152.476 47.4585C152.262 47.468 152.049 47.4345 151.848 47.3599C151.445 47.197 151.119 46.8862 150.938 46.4912C150.756 46.0961 150.732 45.6466 150.871 45.2346Z" fill="#9A4A4D"/>
<path d="M160 34.4958L157.875 32.8619C157.972 32.7165 158.099 32.5927 158.247 32.4981C158.394 32.4034 158.56 32.34 158.733 32.3117C158.906 32.2835 159.083 32.2909 159.253 32.3336C159.423 32.3763 159.582 32.4533 159.722 32.56C160.009 32.7839 160.199 33.1108 160.251 33.4718C160.303 33.8328 160.213 34.1999 160 34.4958Z" fill="#263238"/>
<path d="M159.343 37.3907C159.347 37.5368 159.322 37.6822 159.269 37.8184C159.216 37.9547 159.136 38.0791 159.035 38.1843C158.934 38.2895 158.812 38.3736 158.678 38.4314C158.544 38.4893 158.4 38.5199 158.253 38.5214C158.028 38.5297 157.806 38.4705 157.614 38.3513C157.423 38.2322 157.272 38.0586 157.18 37.8529C157.088 37.6471 157.059 37.4186 157.098 37.1966C157.137 36.9746 157.241 36.7693 157.398 36.607C157.554 36.4447 157.755 36.3328 157.976 36.2857C158.196 36.2386 158.426 36.2585 158.635 36.3427C158.844 36.4269 159.023 36.5717 159.149 36.7584C159.275 36.9452 159.343 37.1653 159.343 37.3907Z" fill="#263238"/>
<path d="M154.086 36.6152L154.447 43.1687L157.869 42.0024L154.086 36.6152Z" fill="#9A4A4D"/>
<path d="M134.573 55.5889C127.304 55.9322 125.155 57.0748 122.733 62.2903C120.957 66.1028 112.077 89.6525 110.449 93.8676C109.023 97.6268 108.833 99.5567 111.947 102.126C115.061 104.695 118.199 107.087 121.419 109.461C123.379 110.911 125.137 112.486 127.114 113.907C130.228 116.139 133.271 118.643 136.586 120.519C140.553 122.775 147.722 125.741 151.499 121.609C152.245 120.792 152.937 119.833 152.529 118.649C152.213 117.887 151.641 117.259 150.913 116.873C150.189 116.489 149.432 116.172 148.651 115.926C146.903 115.297 145.218 114.504 143.619 113.558C144.999 113.119 146.508 113.226 147.911 112.966C148.308 112.894 148.666 112.684 148.924 112.374C149.054 112.221 149.126 112.027 149.126 111.826C149.126 111.625 149.054 111.431 148.924 111.278C148.75 111.148 148.546 111.065 148.332 111.036C146.358 110.594 144.363 110.217 142.346 109.905C140.483 109.69 138.639 109.323 136.835 108.81C133.928 107.862 132.099 105.725 130.027 103.6C127.76 101.274 125.599 98.8641 123.515 96.3658L133.2 73.5797C133.2 73.5797 138.202 60.5084 134.573 55.5889Z" fill="#B16668"/>
<path d="M135.61 55.4348C132.821 55.5887 128.506 55.9203 126.487 57.2108C124.148 58.7086 123.266 59.863 120.946 65.5462C118.625 71.2294 114.061 83.1227 114.061 83.1227C115.626 85.1539 117.67 86.7666 120.009 87.817C122.348 88.8675 124.911 89.3231 127.47 89.1433L135.166 71.3833C135.166 71.3833 138.747 61.9587 135.61 55.4348Z" fill="#455A64"/>
<path d="M146.698 119.584C145.78 115.825 149.208 112.61 151.99 110.704C156.282 107.744 160.089 105.968 164.511 103.316C168.537 100.888 180.862 92.3104 180.862 92.3104C180.862 92.3104 187.238 82.276 191.601 74.5978C197.012 65.0962 201.268 59.0222 210.326 60.1115L210.243 71.5726C210.243 71.5726 190.908 97.8456 189.718 99.2605C188.528 100.675 188.049 101.309 186.007 102.22C180.471 104.778 173.468 107.975 167.903 111.444C166.313 112.418 165.071 113.868 164.351 115.588C163.753 116.965 162.981 118.26 162.054 119.442C161.602 120.019 161.116 120.569 160.598 121.088C160.249 121.431 159.603 122.135 159.076 122.082C158.951 122.063 158.832 122.014 158.729 121.94C158.627 121.866 158.543 121.768 158.484 121.656C158.369 121.424 158.31 121.169 158.313 120.91C158.277 119.329 159.438 117.95 159.597 116.369C159.597 116.227 159.414 116.298 159.384 116.162C159.355 116.026 156.916 117.441 156.703 117.583C155.834 118.187 155 118.839 154.204 119.536C153.399 120.229 152.6 120.94 151.777 121.608C151.393 121.982 150.91 122.237 150.385 122.342C149.859 122.447 149.315 122.398 148.817 122.2C148.29 121.952 147.825 121.587 147.459 121.134C147.092 120.681 146.832 120.151 146.698 119.584Z" fill="#FFBDA7"/>
<path d="M211.486 60.0049C208.591 59.4129 201.499 59.4899 198.291 63.7996C194.904 68.3403 184.432 85.5438 184.432 85.5438C184.432 85.5438 187.108 91.2862 194.94 93.2398L208.384 74.9233L211.486 60.0049Z" fill="#455A64"/>
<path d="M236.007 238.274C236.244 239.203 236.735 241.826 241.625 241.826C246.515 241.826 249.321 239.819 250.274 237.339C251.227 234.858 250.683 233.011 250.594 230.827C250.505 228.642 252.115 227.275 252.47 226.091C252.997 224.368 251.559 221.994 251.559 221.994L236.007 238.274Z" fill="#263238"/>
<path d="M189.002 222.308C188.872 222.696 188.824 223.108 188.863 223.516C188.902 223.924 189.026 224.319 189.227 224.676C189.582 225.155 192.862 227.535 196.923 227.044C199.894 226.754 202.752 225.757 205.258 224.137C207.626 222.74 209.254 222.539 211.664 222.545C214.073 222.551 215.719 222.101 215.92 221.491C216.27 220.431 216.293 219.75 215.784 219.768L189.002 222.308Z" fill="#263238"/>
<path d="M245.911 181.744C245.283 176.598 243.555 171.647 240.843 167.228C240.843 167.228 238.475 132.3 236.463 113.948H200.303C200.303 113.948 201.381 161.539 201.961 168.519C202.405 173.847 206.057 207.247 206.063 207.312L206.59 212.883C209.426 214.31 211.652 214.097 214.067 212.362L214.582 207.431C214.582 207.431 217.542 186.255 217.726 181.205C217.93 176.893 217.453 172.575 216.311 168.412L220.698 144.691C220.698 144.691 224.202 161.456 226.185 170.845C228.453 181.602 241.577 216.826 241.577 216.838L242.412 219.768C242.229 222.965 249.919 220.786 249.836 218.27C249.824 218.276 247.361 192.678 245.911 181.744Z" fill="#FFBDA7"/>
<path d="M224.759 171.313C222.782 161.924 220.698 144.673 220.698 144.673L217.939 168.773C208.029 173.059 201.203 168.945 201.203 168.945C199.427 151.09 200.303 113.93 200.303 113.93H236.463C238.464 132.282 242.022 166.814 242.022 166.814C242.022 166.814 239.204 172.769 224.759 171.313Z" fill="#37474F"/>
<path d="M220.698 144.697L218.247 133.413C218.247 133.413 212.777 132.164 208.87 129.032C208.87 129.032 210.302 132.632 216.293 135.384L218.797 145.958L218.128 167.127L220.698 144.697Z" fill="#263238"/>
<path d="M242.424 219.774L242.128 218.803C241.809 219.123 241.856 219.395 241.844 220.265C241.844 220.952 241.844 221.615 241.755 222.527C241.64 223.718 241.422 224.896 241.104 226.049C240.471 228.725 239.76 229.803 237.878 233.112C237.428 233.893 236.35 235.202 236.031 236.072C235.711 236.942 235.616 238.44 236.623 239.032C239.482 240.725 243.892 240.263 246.687 238.949C247.733 238.472 248.621 237.705 249.244 236.738C249.867 235.772 250.2 234.647 250.203 233.497C250.203 232.816 250.061 232.141 250.031 231.46C250.054 229.89 250.461 228.35 251.215 226.973C251.645 226.176 251.99 225.337 252.245 224.469C252.624 222.888 251.878 221.296 251.257 219.875C250.724 218.649 250.102 217.009 249.682 217.199L249.848 218.276C249.41 218.939 248.072 219.739 246.42 220.052C245.366 220.265 242.543 220.579 242.424 219.774Z" fill="#455A64"/>
<path d="M206.289 209.722C205.916 209.722 205.537 210.012 204.874 210.983C203.962 212.314 202.785 213.443 201.416 214.298C198.96 216.027 195.07 217.773 191.074 219.271C188.896 220.082 188.481 221.639 189.197 223.066C190.328 224.19 194.17 226.825 200.481 224.901C204.394 223.717 205.774 221.704 208.574 221.349C210.551 221.094 213.985 221.639 216.003 220.005C216.643 218.478 216.128 216.938 215.926 214.819C215.725 212.7 215.044 209.308 214.375 209.444L214.257 210.563C213.718 213.019 208.07 213.256 206.472 211.652L206.289 209.722Z" fill="#455A64"/>
<path d="M221.538 59.49C227.814 59.8807 236.001 59.8038 236.386 66.2329C236.978 76.0956 235.077 100.397 235.077 100.397L237.108 117.405C232.508 122.319 211.587 124.888 199.842 117.684C199.842 117.684 199.173 80.7842 200.096 75.2017C201.754 65.1377 206.661 60.3484 210.326 60.0642L221.538 59.49Z" fill="#BA68C8"/>
<path d="M224.368 62.6454C225.813 61.189 226.263 59.7919 225.233 59.6854C223.972 59.5966 222.705 59.5433 221.515 59.4663L212.635 59.9222C212.635 59.9222 210.616 61.9586 211.214 63.6577C211.812 65.3567 213.76 66.2033 216.151 66.1085C219.216 65.9717 222.13 64.7434 224.368 62.6454Z" fill="#455A64"/>
<path opacity="0.3" d="M199.978 76.1252C199.759 78.4577 199.652 83.0635 199.623 88.3974C211.066 92.2869 227.618 90.203 235.853 88.7585C236.102 84.431 236.338 80.9264 236.445 76.4923C223.409 79.328 208.568 78.2742 199.978 76.1252Z" fill="black"/>
<path d="M230.152 60.3364C234.183 60.3364 237.321 60.591 240.139 64.0542C242.11 66.4695 256.756 84.5019 258.491 87.5033C260.226 90.5047 260.344 91.6828 257.775 95.4479C255.643 98.5678 243.768 116.168 239.926 120.152C236.084 124.136 230.951 124.805 228.411 123.74C225.872 122.674 222.616 120.128 228.915 117.228C233.331 115.215 235.871 113.149 236.386 111.16L236.06 108.318H238.428L246.787 91.1678L232.159 75.4679C232.159 75.4679 227.15 66.7241 230.152 60.3364Z" fill="#FFBDA7"/>
<path d="M228.778 60.082C228.778 60.082 234.189 59.9873 236.226 60.7036C238.262 61.4199 239.944 63.0716 242.815 66.6236C245.686 70.1756 253.607 80.287 253.607 80.287C253.607 80.287 252.719 87.0654 244.135 89.0072L231.602 76.6343C231.602 76.6343 226.487 71.4484 228.778 60.082Z" fill="#455A64"/>
<path d="M216.979 44.388C221.448 41.1161 222.418 34.841 219.146 30.3721C215.874 25.9033 209.599 24.933 205.13 28.2049C200.662 31.4768 199.691 37.7519 202.963 42.2207C206.235 46.6895 212.51 47.6599 216.979 44.388Z" fill="#263238"/>
<path d="M228.512 43.1626C228.512 43.1626 226.997 50.8231 226.363 52.0959C225.936 52.8776 225.22 53.4617 224.368 53.7239V48.3544L228.512 43.1626Z" fill="#263238"/>
<path d="M226.292 32.2639C226.859 32.1874 227.436 32.2416 227.979 32.4222C228.521 32.6027 229.016 32.905 229.424 33.3058C230.785 34.6556 230.105 38.9476 228.5 43.1626L225.451 43.5593L226.292 32.2639Z" fill="#263238"/>
<path d="M224.528 43.5769C225.149 43.938 226.008 42.7422 226.754 41.9371C227.5 41.1319 229.951 40.0131 231.223 42.5942C232.496 45.1753 230.229 48.751 228.293 49.3903C224.96 50.4974 224.421 48.3543 224.421 48.3543L224.368 60.7863C220.289 66.1972 208.715 65.9249 213.446 60.2713L213.398 56.5891C213.398 56.5891 210.367 57.0982 208.887 56.891C206.413 56.5476 204.832 54.6295 204.045 51.9715C202.778 47.7091 202.269 44.2755 203.151 35.8099C204.127 26.5569 214.866 26.2905 220.727 29.8543C226.588 33.4182 224.528 43.5769 224.528 43.5769Z" fill="#FFBDA7"/>
<path d="M224.546 44.6131C224.854 44.6131 225.996 42.6476 226.754 41.9372C227.796 40.9604 226.292 32.2639 226.292 32.2639C226.646 31.4907 226.759 30.6289 226.616 29.7907C226.474 28.9524 226.082 28.1764 225.493 27.5635C224.019 25.9887 221.941 24.0766 215.429 24.9527C210.746 25.5803 205.667 27.1254 201.511 25.1659C201.152 26.5101 201.201 27.9306 201.651 29.2471C202.101 30.5635 202.932 31.7166 204.039 32.5599C204.039 32.5599 205.548 33.4953 209.479 33.9156C213.41 34.3359 219.543 33.667 220.354 33.5367C221.491 33.3651 221.751 34.4662 222.415 37.4676C222.995 40.1316 223.51 44.6071 224.546 44.6131Z" fill="#263238"/>
<path d="M226.298 32.9388L229.974 30.8905C229.852 30.6427 229.682 30.4221 229.472 30.2422C229.263 30.0623 229.019 29.9267 228.755 29.8437C228.492 29.7607 228.214 29.732 227.94 29.7593C227.665 29.7866 227.398 29.8693 227.156 30.0025C226.663 30.2875 226.298 30.7517 226.139 31.2986C225.979 31.8455 226.036 32.433 226.298 32.9388Z" fill="#263238"/>
<path d="M214.198 42.5764C214.214 42.7907 214.292 42.9955 214.423 43.1657C214.555 43.3359 214.733 43.464 214.936 43.5342C215.139 43.6044 215.358 43.6136 215.566 43.5608C215.775 43.5079 215.963 43.3953 216.108 43.2368C216.253 43.0782 216.349 42.8808 216.383 42.6686C216.417 42.4565 216.388 42.239 216.3 42.0429C216.212 41.8469 216.069 41.6808 215.888 41.5652C215.707 41.4496 215.496 41.3896 215.281 41.3924C215.131 41.3961 214.984 41.43 214.847 41.4921C214.711 41.5542 214.588 41.6432 214.487 41.7537C214.386 41.8643 214.308 41.9942 214.258 42.1355C214.209 42.2769 214.188 42.4269 214.198 42.5764Z" fill="#263238"/>
<path d="M214.831 38.5688L217.199 39.8297C217.361 39.5027 217.39 39.1256 217.28 38.7778C217.169 38.43 216.928 38.1386 216.607 37.9649C216.451 37.8863 216.281 37.8396 216.107 37.8274C215.933 37.8153 215.758 37.838 215.592 37.8942C215.427 37.9504 215.274 38.039 215.144 38.1548C215.013 38.2707 214.907 38.4114 214.831 38.5688Z" fill="#263238"/>
<path d="M203.843 39.6638L205.969 37.9707C205.866 37.8268 205.735 37.7054 205.583 37.614C205.432 37.5226 205.264 37.4632 205.088 37.4393C204.913 37.4155 204.735 37.4277 204.564 37.4753C204.394 37.5229 204.235 37.6049 204.098 37.7161C203.813 37.9455 203.627 38.2761 203.58 38.6389C203.532 39.0017 203.627 39.3688 203.843 39.6638Z" fill="#263238"/>
<path d="M204.868 42.5764C204.884 42.7907 204.962 42.9955 205.094 43.1657C205.225 43.3359 205.403 43.464 205.606 43.5342C205.809 43.6044 206.028 43.6136 206.236 43.5608C206.445 43.5079 206.633 43.3953 206.778 43.2368C206.923 43.0782 207.019 42.8808 207.053 42.6686C207.087 42.4565 207.058 42.239 206.97 42.0429C206.882 41.8469 206.739 41.6808 206.558 41.5652C206.377 41.4496 206.166 41.3896 205.951 41.3924C205.801 41.3969 205.654 41.4314 205.518 41.4937C205.382 41.5561 205.26 41.6451 205.159 41.7555C205.058 41.8659 204.98 41.9954 204.93 42.1364C204.88 42.2774 204.859 42.4271 204.868 42.5764Z" fill="#263238"/>
<path d="M213.398 56.6187C213.398 56.6187 218.803 55.559 220.704 54.5526C221.705 53.9731 222.467 53.0559 222.853 51.9656C222.75 53.0454 222.339 54.0729 221.669 54.9256C220.277 56.7016 213.428 58.2645 213.428 58.2645L213.398 56.6187Z" fill="#F0997A"/>
<path d="M214.559 50.0713L211.522 51.2138C211.588 51.4182 211.694 51.6071 211.835 51.7693C211.975 51.9314 212.147 52.0635 212.34 52.1575C212.533 52.2515 212.743 52.3055 212.958 52.3163C213.172 52.3271 213.386 52.2944 213.588 52.2202C213.996 52.0573 214.326 51.7424 214.507 51.3416C214.688 50.9409 214.706 50.4855 214.559 50.0713Z" fill="#F0997A"/>
<path d="M211.344 41.4575L210.983 48.011L207.561 46.8447L211.344 41.4575Z" fill="#F0997A"/>
<path d="M86.7813 60.7331L86.1479 60.7982C84.0662 61.0207 81.9612 60.8309 79.9529 60.2396C77.9446 59.6482 76.0725 58.667 74.4436 57.352C72.8147 56.037 71.4608 54.4139 70.4593 52.5755C69.4578 50.737 68.8284 48.7193 68.6069 46.6376C68.1842 42.5829 69.3873 38.5261 71.9522 35.3575C74.5171 32.1888 78.2343 30.1671 82.2881 29.736L84.0641 29.5465C88.1095 29.1214 92.1588 30.3149 95.327 32.8663C98.4951 35.4176 100.524 39.1194 100.972 43.1625C101.196 45.2485 101.008 47.3583 100.416 49.3711C99.8238 51.3839 98.8406 53.2601 97.5224 54.8923C96.2042 56.5245 94.577 57.8806 92.7338 58.8829C90.8907 59.8851 88.8679 60.5139 86.7813 60.7331Z" fill="#263238"/>
<path d="M78.5881 30.5885C82.7776 28.8904 87.0703 27.4589 91.4405 26.3024C93.1693 25.8025 94.9781 25.6397 96.7685 25.8229C97.6599 25.9238 98.5171 26.2242 99.2766 26.7018C100.036 27.1794 100.678 27.8219 101.155 28.5816C102.221 30.4997 101.747 33.0039 100.409 34.7562C101.584 35.1124 102.618 35.8267 103.367 36.7991C104.115 37.7716 104.542 38.9537 104.586 40.1802C104.631 41.4068 104.291 42.6166 103.614 43.6406C102.937 44.6646 101.958 45.4516 100.812 45.8917C99.2669 46.384 97.6259 46.4957 96.0285 46.2173C92.6584 45.8823 89.3925 44.8608 86.4321 43.2159C83.4623 41.5548 81.1001 38.9894 79.6893 35.8928" fill="#263238"/>
<path d="M94.6313 215.144C92.9559 213.238 92.6777 211.433 93.0033 207.981C93.3289 204.53 96.8513 174.492 97.7393 166.973C99.2548 154.34 99.7817 118.281 98.9588 109.467L65.1201 111.243C62.5093 117.311 60.5084 124.811 60.5794 136.699C60.6327 145.738 59.7802 170.241 59.7802 170.241C59.7802 170.241 55.5652 173.734 52.4335 180.773C49.6689 186.989 46.105 208.597 46.105 208.597C45.8265 209.537 45.4782 210.455 45.0631 211.344C44.3004 212.22 43.8451 213.322 43.7666 214.481C43.6673 218.234 43.9669 221.987 44.6605 225.676C45.0217 227.588 46.1761 228.837 48.0468 229.643C48.4626 229.824 48.9135 229.911 49.3669 229.897C49.6018 229.901 49.8304 229.821 50.0122 229.672C50.3437 229.358 50.0714 228.595 50.0122 228.21C49.9313 227.594 49.8918 226.973 49.8938 226.351C49.8938 225.132 49.9649 223.64 50.0773 222.426C50.3098 219.695 50.8216 216.995 51.6047 214.369L52.2973 212.824C52.2973 212.824 67.7308 183.65 72.082 176.558C75.5393 170.987 78.3098 149.101 80.962 137.166L84.1706 165.943C83.1045 168.898 82.2906 171.938 81.7375 175.031C80.9857 180.359 84.1943 201.28 85.1237 208.721C85.2985 210.099 85.2785 211.494 85.0645 212.865C85.3783 216.092 87.7641 217.145 90.209 219.028C91.4285 219.963 96.7921 223.421 100.066 224.172C102.73 224.764 103.778 223.776 104.174 223.03C100.712 220.762 97.5115 218.117 94.6313 215.144Z" fill="#FFA8A7"/>
<path d="M40.7356 215.518C40.447 215.689 40.1979 215.919 40.005 216.194C39.8121 216.468 39.6798 216.781 39.6167 217.11C39.3859 218.247 39.6819 219.762 40.0607 221.254C40.4396 222.746 40.3864 225.925 40.2384 228.24C40.0827 230.436 40.7121 232.615 42.0144 234.391C43.2339 235.977 45.3947 237.161 48.2007 237.262C51.0068 237.362 52.4691 236.984 53.5288 236.427C54.5884 235.871 55.0443 233.029 53.2919 232.372C51.5396 231.715 45.5249 230.596 44.2284 225.025C43.4579 221.725 42.2849 218.532 40.7356 215.518Z" fill="#263238"/>
<path d="M45.0631 211.344C45.2776 211.995 45.3817 212.677 45.371 213.363C45.4753 213.93 45.5406 214.503 45.5663 215.079C45.5663 215.589 45.6551 216.198 46.1228 216.394C46.3141 216.45 46.5177 216.45 46.709 216.394C46.9002 216.337 47.0709 216.226 47.2002 216.074C47.4502 215.763 47.6834 215.439 47.8988 215.103C48.1553 214.769 48.4832 214.496 48.8585 214.304C49.2339 214.112 49.6472 214.007 50.0685 213.995C50.4898 213.983 50.9085 214.065 51.294 214.235C51.6796 214.405 52.0223 214.659 52.2974 214.979L52.0902 215.452C50.4467 219.49 50.087 223.937 51.0601 228.186C51.2337 229.012 51.685 229.754 52.3388 230.288C52.898 230.724 53.4243 231.201 53.9135 231.715C54.1581 231.974 54.3436 232.284 54.457 232.622C54.5705 232.961 54.6092 233.319 54.5706 233.674C54.4542 234.205 54.1439 234.674 53.7004 234.988C53.2612 235.299 52.7729 235.533 52.2559 235.681C49.7714 236.501 47.0675 236.343 44.6961 235.237C43.6954 234.708 42.8381 233.944 42.1978 233.011C40.8599 230.531 41.079 228.204 41.1145 226.097C41.1974 221.443 40.5225 219.022 40.1791 216.684C39.8002 213.83 44.1929 210.87 45.0631 211.344Z" fill="#455A64"/>
<path d="M83.7266 219.673C83.5609 220.769 83.4484 221.254 84.7922 222.266C86.1361 223.279 88.214 223.995 89.8242 224.634C91.4345 225.274 93.7018 227.091 94.6786 228.003C95.6554 228.914 99.4502 230.554 102.54 230.454C105.631 230.353 107.424 229.654 108.17 228.991C108.916 228.328 109.692 225.99 107.714 225.345C105.737 224.699 83.7266 219.673 83.7266 219.673Z" fill="#263238"/>
<path d="M85.1298 211.936C85.0295 211.959 84.9369 212.007 84.8611 212.077C84.7854 212.146 84.729 212.235 84.6976 212.332C84.4135 213.203 84.4016 214.203 84.1944 215.097C83.8807 216.5 83.5255 218.513 83.7268 219.65C83.928 220.786 85.4258 221.923 88.2733 222.811C89.9842 223.35 93.0093 224.918 94.4064 226.239C96.0936 227.855 99.7344 229.258 102.245 229.4C105.169 229.566 108.241 228.861 108.999 226.777C109.319 225.895 109.153 224.528 105.447 222.633C105.447 222.633 102.623 221.118 101.564 220.419C99.698 219.234 97.9461 217.878 96.3304 216.37C95.7449 215.805 95.2064 215.193 94.7202 214.541C94.4655 214.237 94.2377 213.913 94.0394 213.57C93.8197 212.94 93.6746 212.286 93.6072 211.622C93.5809 211.411 93.5081 211.209 93.3941 211.03C93.2388 210.847 93.0329 210.713 92.8021 210.645C92.2454 210.437 91.6448 210.373 91.0566 210.459C90.4684 210.546 89.9118 210.78 89.4387 211.14C88.9657 211.5 88.5916 211.975 88.3516 212.519C88.1116 213.062 88.0133 213.658 88.0661 214.251C87.8648 214.351 87.6162 214.162 87.5511 213.943C87.5184 213.717 87.5006 213.49 87.4978 213.262C87.4475 213.02 87.3347 212.795 87.1706 212.61C87.0065 212.425 86.7968 212.287 86.5624 212.208C86.1181 211.99 85.6231 211.896 85.1298 211.936Z" fill="#455A64"/>
<path d="M79.3635 146.224C79.7898 143.003 80.8376 138.623 80.8376 138.623L81.7256 146.106L83.6319 165.541C82.9727 167.351 82.4153 169.197 81.9624 171.07C80.9975 174.823 81.104 181.134 81.696 185.278C82.288 189.422 83.5549 196.846 83.5549 196.846C89.5933 200.202 94.3234 197.047 94.3234 197.047C94.3234 197.047 95.7264 188.688 97.1828 176.635C98.6391 164.582 99.3139 152.629 99.6573 142.595C99.6573 142.595 101.214 117.63 97.4314 100.628C92.3698 103.997 77.5875 104.31 71.7563 99.4441C71.7563 99.4441 69.264 103.328 63.8235 112C59.5493 118.808 60.461 129.95 60.1472 139.232C59.6618 153.559 59.3184 169.738 59.3184 169.738C57.3715 171.798 55.6196 174.033 54.0851 176.416C51.3619 180.56 49.7754 189.866 49.7754 189.866C49.7754 189.866 52.2677 195.543 61.2661 196.023C61.2661 196.023 70.4303 180.323 72.7213 176.765C75.0123 173.207 78.9373 149.438 79.3635 146.224Z" fill="#37474F"/>
<path d="M80.8376 138.623L84.4548 126.06C84.4548 126.06 90.7655 125.551 95.762 122.082C95.762 122.082 94.6312 126.682 85.9288 127.813L81.8677 140.132V147.757L80.8376 138.623Z" fill="#263238"/>
<path d="M101.368 78.3156C98.2188 73.1533 91.7956 68.145 89.7118 66.4045L77.3331 66.1677C74.8999 66.2328 71.3302 66.4519 71.3302 66.4519C68.7195 67.7602 68.7609 70.9629 68.5951 73.9821C68.4057 77.2973 68.3524 78.7537 69.122 84.2533L70.602 91.2804L70.827 92.3578C70.8684 92.5413 70.9039 92.7308 70.9454 92.9498C71.5137 95.6428 71.0934 98.4504 69.7614 100.859C66.8014 106.187 63.3263 110.195 62.2607 114.712C63.8851 114.305 65.3787 113.489 66.6001 112.344C68.4708 110.645 69.5956 109.863 71.1111 107.839C71.1111 107.839 71.1763 110.917 74.1244 115.031C74.8802 116.087 75.752 117.054 76.7233 117.914C82.0868 122.65 98.5444 125.078 99.462 110.698C99.462 110.698 97.8814 101.569 97.6564 98.5087C98.1892 95.8861 99.687 91.3573 99.7462 90.345C103.6 87.0239 103.665 82.0748 101.368 78.3156Z" fill="#BA68C8"/>
<path d="M77.4455 68.6718C78.6295 70.1044 81.5243 73.2953 84.2298 73.8458C87.4088 74.4911 90.6826 74.2188 91.4936 72.2593C92.3047 70.2998 90.7477 67.9318 89.315 66.4103L77.333 66.1794H76.4627C76.4213 66.3985 76.1075 67.0082 77.4455 68.6718Z" fill="#455A64"/>
<path opacity="0.3" d="M68.7668 81.5063C68.8616 82.2996 68.974 83.2054 69.122 84.2532L70.602 91.2802L70.827 92.3577C70.8684 92.5412 70.904 92.7306 70.9454 92.9497C71.115 93.8271 71.1904 94.7202 71.1704 95.6137C83.2827 99.6866 93.0744 97.5791 98.3609 95.6137C98.9529 93.3582 99.6929 91.0198 99.7344 90.3271C101.057 89.2351 102.03 87.7795 102.534 86.1403C103.038 84.501 103.051 82.75 102.57 81.1038C99.7521 82.5542 95.5844 83.4244 91.2747 83.827C83.6925 84.5433 76.0434 83.7547 68.7668 81.5063Z" fill="black"/>
<path opacity="0.1" d="M93.7787 89.6049C93.7787 89.6049 89.6347 93.0918 84.6679 91.5467C83.281 91.1619 82.0166 90.4266 80.9964 89.4116C79.9761 88.3965 79.2344 87.1358 78.8426 85.751C78.8426 85.751 78.5347 91.3572 84.7626 93.0326C90.7891 94.6428 93.7787 89.6049 93.7787 89.6049Z" fill="black"/>
<path d="M131.779 110.905C131.664 110.769 131.512 110.668 131.341 110.615C125.149 108.17 118.222 110.384 112.829 109.715L112.912 111.562C115.476 113.143 118.643 113.439 121.644 113.202C124.646 112.965 127.594 112.261 130.595 111.989C130.922 111.993 131.245 111.911 131.531 111.752C131.672 111.669 131.776 111.535 131.822 111.378C131.868 111.22 131.853 111.052 131.779 110.905Z" fill="#F28F8F"/>
<path d="M88.2969 112.219C86.7517 111.864 83.7977 110.615 82.7498 109.224C80.8673 106.72 65.1497 82.8561 64.1847 76.2968C63.4092 71.0161 65.8897 66.3512 71.3301 66.4518C74.8348 68.9974 78.2861 78.7121 78.2861 78.7121L90.7181 101.534C95.1049 103.582 110.455 108.638 113.161 109.467C115.866 110.295 121.384 109.691 125.066 110.864C128.748 112.036 138.054 115.902 136.178 117.648C134.739 118.974 133.188 120.288 130.601 120.478C127.422 120.703 127.049 119.448 123.858 119.371C120.667 119.294 118.009 120.253 114.647 118.944C112.521 118.116 112.427 117.63 109.467 116.914C106.507 116.198 90.2978 112.675 88.2969 112.219Z" fill="#FFA8A7"/>
<path d="M72.8871 66.3572C70.1402 65.8836 66.3751 66.2921 64.0663 69.8204C61.7575 73.3488 63.788 78.2446 65.2503 81.5184C66.7125 84.7921 71.5018 92.352 71.5018 92.352C71.5018 92.352 81.8795 91.6001 83.8391 86.3964C83.8391 86.3787 77.5106 72.8633 72.8871 66.3572Z" fill="#455A64"/>
<path d="M95.5845 36.9526C97.3013 38.0715 99.2786 42.6003 98.651 51.877C98.1182 59.7387 95.4838 61.568 94.1755 62.0712C92.8672 62.5744 90.4163 62.1245 88.0306 61.6213L87.8174 66.3573C87.8174 66.3573 90.7774 68.8378 90.4637 70.9926C90.1499 73.1475 85.3074 73.7454 82.2941 71.4899C80.61 70.281 79.1207 68.8216 77.8778 67.1624L78.4224 54.9198C78.4224 54.9198 76.7766 56.613 74.2014 54.7304C73.6767 54.3487 73.2399 53.8588 72.9207 53.2938C72.6016 52.7288 72.4073 52.1019 72.3512 51.4554C72.2951 50.8089 72.3784 50.1579 72.5954 49.5464C72.8125 48.9348 73.1583 48.377 73.6094 47.9106C75.2197 46.4128 78.1205 47.36 78.6414 49.5504C78.6414 49.5504 82.0632 49.4912 87.1248 46.5904C92.6304 43.4765 94.069 40.1968 95.5845 36.9526Z" fill="#FFA8A7"/>
<path d="M88.5396 49.2544C88.5327 49.448 88.469 49.6353 88.3564 49.793C88.2439 49.9507 88.0875 50.0719 87.9067 50.1415C87.7259 50.2111 87.5286 50.226 87.3394 50.1844C87.1502 50.1428 86.9774 50.0466 86.8424 49.9076C86.7074 49.7686 86.6162 49.593 86.5802 49.4027C86.5442 49.2123 86.5649 49.0155 86.6398 48.8368C86.7146 48.6581 86.8403 48.5054 87.0013 48.3975C87.1622 48.2897 87.3513 48.2315 87.5451 48.2302C87.678 48.231 87.8094 48.2582 87.9317 48.3103C88.0539 48.3624 88.1646 48.4383 88.2572 48.5337C88.3498 48.629 88.4224 48.7419 88.4709 48.8656C88.5194 48.9894 88.5428 49.1215 88.5396 49.2544Z" fill="#263238"/>
<path d="M89.392 56.1511L92.1981 57.1812C92.1387 57.3696 92.042 57.544 91.9136 57.6941C91.7853 57.8442 91.628 57.9669 91.4511 58.0548C91.2742 58.1427 91.0814 58.1939 90.8843 58.2056C90.6871 58.2172 90.4897 58.189 90.3037 58.1225C89.9268 57.975 89.6214 57.6875 89.4515 57.3201C89.2816 56.9527 89.2603 56.5339 89.392 56.1511Z" fill="#F28F8F"/>
<path d="M97.3248 46.768L95.3831 45.288C95.4742 45.1588 95.5903 45.0492 95.7246 44.9656C95.8588 44.882 96.0084 44.8261 96.1645 44.8013C96.3207 44.7765 96.4802 44.7832 96.6338 44.821C96.7873 44.8588 96.9317 44.9271 97.0584 45.0216C97.3178 45.2234 97.4899 45.5169 97.5395 45.8417C97.589 46.1666 97.5122 46.4981 97.3248 46.768Z" fill="#263238"/>
<path d="M96.7567 49.0944C96.7606 49.2268 96.7382 49.3586 96.6908 49.4823C96.6434 49.6059 96.572 49.719 96.4805 49.8148C96.3891 49.9106 96.2796 49.9873 96.1583 50.0405C96.037 50.0937 95.9064 50.1222 95.774 50.1245C95.5685 50.134 95.3649 50.0817 95.1894 49.9744C95.0139 49.8671 94.8745 49.7097 94.7892 49.5225C94.7039 49.3353 94.6767 49.1269 94.7109 48.9241C94.7451 48.7212 94.8393 48.5333 94.9813 48.3845C95.1233 48.2356 95.3066 48.1327 95.5076 48.089C95.7086 48.0452 95.9181 48.0627 96.1091 48.1391C96.3001 48.2154 96.4638 48.3473 96.5793 48.5175C96.6947 48.6878 96.7565 48.8887 96.7567 49.0944Z" fill="#263238"/>
<path d="M91.9496 48.313L91.8372 54.2744L95.0162 53.4456L91.9496 48.313Z" fill="#F28F8F"/>
<path d="M88.0306 61.6211C85.5146 61.1712 80.3701 59.4485 79.6538 57.3528C79.9317 58.4079 80.5268 59.3523 81.3588 60.0582C82.8565 61.4613 87.9596 63.1958 87.9596 63.1958L88.0306 61.6211Z" fill="#F28F8F"/>
<path d="M122.58 61.8285C122.349 57.3826 123.61 56.0802 125.196 55.0146C126.783 53.949 132.65 52.4275 133.863 52.8538C135.077 53.28 141.435 56.4058 141.133 59.4901C140.831 62.5744 137.936 63.344 134.733 62.6099C131.531 61.8758 126.025 58.2528 124.847 58.7678C123.669 59.2829 122.58 61.8285 122.58 61.8285Z" fill="#FFA8A7"/>
<path d="M196.153 66.1322C197.296 65.6172 198.989 66.3631 201.594 65.8244C204.199 65.2857 205.939 64.2142 207.467 64.0898C208.994 63.9655 209.639 63.4978 208.088 62.6394C206.537 61.781 203.832 62.1422 203.293 61.935C204.119 61.4058 205.022 61.0065 205.969 60.751C208.191 60.3574 210.431 60.0788 212.682 59.9162C212.806 59.9162 213.629 58.5842 209.787 58.0514C205.945 57.5186 200.315 58.3415 198.208 59.4604C196.1 60.5793 196.153 66.1322 196.153 66.1322Z" fill="#B16668"/>
<path d="M45.3767 54.3869C45.3902 54.6177 45.3358 54.8474 45.2202 55.0476C45.1046 55.2479 44.9329 55.4099 44.7263 55.5137C44.5197 55.6175 44.2872 55.6585 44.0576 55.6318C43.8279 55.605 43.6111 55.5115 43.434 55.363C43.2568 55.2144 43.127 55.0172 43.0606 54.7957C42.9942 54.5743 42.9941 54.3382 43.0603 54.1167C43.1265 53.8951 43.2562 53.6979 43.4332 53.5491C43.6102 53.4004 43.8269 53.3068 44.0566 53.2798C44.2168 53.261 44.3792 53.2751 44.5338 53.3213C44.6884 53.3675 44.8319 53.4448 44.9555 53.5485C45.0791 53.6522 45.1803 53.78 45.2527 53.9242C45.3251 54.0683 45.3674 54.2258 45.3767 54.3869Z" fill="#BA68C8"/>
<path d="M48.0585 44.6011L49.8937 46.1048L52.167 45.4417C52.2152 45.4267 52.2667 45.4258 52.3154 45.439C52.3642 45.4521 52.4082 45.4789 52.4423 45.5161C52.4765 45.5534 52.4993 45.5995 52.5082 45.6492C52.5171 45.6989 52.5117 45.7502 52.4926 45.7969L51.6342 48.0051L52.9662 49.9646C52.9955 50.0058 53.0126 50.0546 53.0153 50.1051C53.018 50.1557 53.0062 50.2059 52.9814 50.25C52.9565 50.2941 52.9196 50.3302 52.875 50.3541C52.8303 50.378 52.7798 50.3887 52.7294 50.3849L50.3614 50.2547L48.911 52.1254C48.8797 52.1642 48.8385 52.1937 48.7916 52.2106C48.7448 52.2276 48.6943 52.2314 48.6454 52.2217C48.5966 52.2119 48.5514 52.1889 48.5147 52.1553C48.478 52.1216 48.4513 52.0785 48.4374 52.0307L47.8335 49.7278L45.5839 48.9345C45.5372 48.9171 45.4962 48.8872 45.4653 48.8481C45.4344 48.809 45.4149 48.7622 45.4088 48.7127C45.4027 48.6633 45.4103 48.6131 45.4307 48.5676C45.4511 48.5222 45.4837 48.4832 45.5247 48.455L47.5198 47.1704L47.5967 44.8024C47.5923 44.7471 47.6053 44.6918 47.6338 44.6443C47.6623 44.5967 47.705 44.5592 47.7558 44.5371C47.8067 44.5149 47.8631 44.5092 47.9174 44.5207C47.9716 44.5321 48.021 44.5602 48.0585 44.6011Z" fill="#BA68C8"/>
<path d="M259.456 55.2158C259.822 55.2451 260.164 55.4131 260.411 55.6857C260.658 55.9582 260.792 56.3146 260.785 56.6824C260.778 57.0501 260.631 57.4013 260.374 57.6646C260.118 57.9278 259.77 58.0831 259.403 58.0988C259.206 58.1073 259.009 58.0753 258.825 58.0049C258.641 57.9345 258.473 57.8271 258.332 57.6894C258.191 57.5517 258.079 57.3866 258.004 57.2042C257.93 57.0219 257.893 56.8261 257.896 56.629C257.9 56.4319 257.944 56.2376 258.026 56.0581C258.107 55.8786 258.225 55.7177 258.371 55.5853C258.517 55.4529 258.688 55.3519 258.875 55.2883C259.062 55.2247 259.259 55.2001 259.456 55.2158Z" fill="#BA68C8"/>
<path d="M243.933 48.7984L246.834 45.9568L246.142 41.9608C246.126 41.8757 246.135 41.7879 246.167 41.7076C246.199 41.6272 246.253 41.5574 246.323 41.5062C246.392 41.4549 246.475 41.4243 246.561 41.4179C246.648 41.4114 246.734 41.4293 246.811 41.4695L250.416 43.352L254.003 41.4576C254.08 41.4163 254.166 41.3973 254.253 41.4028C254.339 41.4083 254.423 41.4381 254.493 41.4888C254.563 41.5394 254.618 41.6089 254.651 41.6893C254.684 41.7696 254.693 41.8576 254.678 41.9431L253.968 45.945L256.928 48.7748C256.989 48.8348 257.033 48.9109 257.054 48.9944C257.074 49.0779 257.071 49.1656 257.045 49.2474C257.018 49.3293 256.97 49.4021 256.904 49.4577C256.838 49.5133 256.758 49.5495 256.673 49.5621L252.66 50.1541L250.884 53.7949C250.845 53.8724 250.786 53.9376 250.713 53.9832C250.64 54.0288 250.555 54.053 250.469 54.053C250.383 54.053 250.298 54.0288 250.225 53.9832C250.152 53.9376 250.093 53.8724 250.055 53.7949L248.279 50.1541L244.259 49.5621C244.173 49.5578 244.089 49.5292 244.018 49.4797C243.947 49.4301 243.892 49.3617 243.858 49.282C243.824 49.2024 243.813 49.1149 243.826 49.0294C243.84 48.9438 243.877 48.8638 243.933 48.7984Z" fill="#BA68C8"/>
<path d="M268.052 104.743L268.922 106.672L271.006 107.057C271.049 107.066 271.09 107.087 271.122 107.117C271.155 107.147 271.179 107.186 271.191 107.228C271.203 107.271 271.203 107.317 271.192 107.359C271.18 107.402 271.157 107.441 271.124 107.472L269.555 108.892L269.834 110.988C269.841 111.033 269.836 111.079 269.818 111.12C269.8 111.162 269.771 111.198 269.734 111.223C269.696 111.249 269.652 111.263 269.607 111.264C269.562 111.266 269.517 111.254 269.478 111.231L267.637 110.177L265.731 111.095C265.691 111.115 265.645 111.124 265.6 111.119C265.555 111.115 265.513 111.097 265.477 111.069C265.442 111.041 265.415 111.004 265.4 110.961C265.385 110.918 265.383 110.872 265.394 110.828L265.826 108.756L264.364 107.229C264.332 107.196 264.311 107.156 264.302 107.111C264.293 107.067 264.296 107.021 264.311 106.979C264.327 106.936 264.353 106.899 264.389 106.871C264.424 106.843 264.467 106.826 264.512 106.82L266.613 106.59L267.62 104.731C267.641 104.691 267.673 104.659 267.712 104.637C267.75 104.614 267.795 104.603 267.839 104.604C267.884 104.606 267.927 104.619 267.965 104.644C268.002 104.668 268.032 104.702 268.052 104.743Z" fill="#BA68C8"/>
<path d="M35.7686 90.2266L39.0719 92.5472L42.8726 91.1205C42.9552 91.0904 43.0447 91.0845 43.1306 91.1035C43.2164 91.1225 43.2951 91.1656 43.3573 91.2278C43.4194 91.29 43.4626 91.3687 43.4816 91.4545C43.5006 91.5404 43.4947 91.6299 43.4646 91.7125L42.2806 95.602L44.8143 98.7751C44.8686 98.8422 44.9029 98.9232 44.9135 99.0089C44.924 99.0946 44.9103 99.1815 44.8739 99.2598C44.8376 99.3381 44.78 99.4046 44.7077 99.4518C44.6354 99.499 44.5514 99.5251 44.4651 99.5269L40.4039 99.6039L38.1662 102.996C38.1185 103.068 38.0516 103.126 37.973 103.162C37.8944 103.198 37.8072 103.211 37.7215 103.2C37.6357 103.189 37.5548 103.154 37.4879 103.099C37.4211 103.044 37.371 102.971 37.3433 102.889L36.0172 99.0533L32.0982 97.9759C32.0144 97.9532 31.9387 97.9074 31.8798 97.8437C31.8209 97.7799 31.7811 97.7009 31.7651 97.6157C31.749 97.5304 31.7573 97.4423 31.789 97.3615C31.8207 97.2807 31.8745 97.2105 31.9443 97.1589L35.1825 94.708L34.999 90.6528C34.9798 90.5568 34.9917 90.4572 35.0329 90.3684C35.0741 90.2795 35.1425 90.2061 35.2281 90.1586C35.3138 90.1112 35.4123 90.0922 35.5094 90.1044C35.6066 90.1166 35.6973 90.1594 35.7686 90.2266Z" fill="#BA68C8"/>
<path d="M262.493 112.569C262.529 112.79 262.475 113.017 262.344 113.199C262.213 113.381 262.016 113.503 261.794 113.54C261.572 113.574 261.346 113.519 261.164 113.387C260.982 113.255 260.86 113.057 260.823 112.835C260.789 112.614 260.844 112.388 260.976 112.207C261.108 112.026 261.307 111.905 261.528 111.87C261.637 111.852 261.749 111.855 261.857 111.88C261.965 111.905 262.067 111.952 262.157 112.017C262.247 112.082 262.323 112.164 262.38 112.259C262.438 112.354 262.476 112.459 262.493 112.569Z" fill="#BA68C8"/>
<path d="M47.9519 94.0451C47.983 94.233 47.9577 94.4259 47.8793 94.5994C47.8009 94.773 47.673 94.9195 47.5115 95.0204C47.35 95.1214 47.1623 95.1723 46.9719 95.1668C46.7816 95.1613 46.5971 95.0996 46.4418 94.9895C46.2864 94.8793 46.1671 94.7257 46.0989 94.5479C46.0307 94.3701 46.0166 94.1761 46.0585 93.9903C46.1003 93.8045 46.1962 93.6352 46.334 93.5038C46.4719 93.3724 46.6455 93.2848 46.8331 93.2518C46.9587 93.2298 47.0874 93.2329 47.2119 93.2609C47.3363 93.2889 47.4539 93.3413 47.558 93.4151C47.662 93.4889 47.7504 93.5825 47.818 93.6907C47.8857 93.7988 47.9312 93.9193 47.9519 94.0451Z" fill="#BA68C8"/>
</svg>
